<svg width="204" height="247" viewBox="0 0 204 247" fill="none" xmlns="http://www.w3.org/2000/svg">
<path fill-rule="evenodd" clip-rule="evenodd" d="M101.923 245.838C157.94 245.838 203.627 200.15 203.627 144.133C203.627 88.1152 157.94 42.4272 101.923 42.4272C45.9054 42.4272 0.21875 88.1152 0.21875 144.133C0.21875 200.15 45.9054 245.838 101.923 245.838Z" fill="#9976AE"/>
<path fill-rule="evenodd" clip-rule="evenodd" d="M119.364 19.6724C131.365 14.6297 159.456 25.2737 162.52 69.5324C165.114 106.967 189.4 116.979 186.974 143.39C185.836 155.796 180.116 168.452 171.448 176.472C155.172 191.528 126.317 207.728 116.526 181.918C108.889 161.779 94.7277 30.0217 119.364 19.6724Z" fill="#3F2716"/>
<path fill-rule="evenodd" clip-rule="evenodd" d="M84.4499 19.6723C72.4486 14.6297 44.3579 25.2737 41.2939 69.5323C39.2819 98.5643 24.2232 112.46 18.6952 129.878C12.8059 148.443 22.3939 182.247 52.0606 188.61C66.4886 191.704 82.2859 195.1 87.2872 181.918C94.9246 161.779 109.086 30.0217 84.4499 19.6723Z" fill="#3F2716"/>
<path fill-rule="evenodd" clip-rule="evenodd" d="M121.822 154.076L121.174 132.752H82.5408L81.1208 154.053C80.4928 163.469 60.2528 166.664 52.3368 171.473C28.8222 185.755 8.37951 210.167 9.18618 245.837H194.66C195.424 212.063 177.134 188.38 155.228 173.833C144.572 166.76 122.052 161.635 121.822 154.076Z" fill="#E4AE7C"/>
<path fill-rule="evenodd" clip-rule="evenodd" d="M81.3682 150.343C93.2855 161.279 109.645 161.586 121.729 151.024L121.173 132.752H82.5415L81.3682 150.343Z" fill="#D67F54"/>
<path fill-rule="evenodd" clip-rule="evenodd" d="M100.947 149.237C57.5922 150.639 30.7749 62.776 59.4509 24.1293C68.0029 12.604 77.9882 20.512 97.4456 21.4133C97.7776 21.3973 98.0922 21.4053 98.4202 21.3947C98.7509 21.4053 99.0642 21.3973 99.3976 21.4133C150.799 19.032 164.04 57.776 151.178 100.04C142.844 127.417 125.024 149.952 102.899 149.237C102.571 149.248 102.25 149.228 101.922 149.228C101.595 149.228 101.275 149.248 100.947 149.237Z" fill="#E4AE7C"/>
<path fill-rule="evenodd" clip-rule="evenodd" d="M50.752 87.0488C50.5266 84.5701 40.3866 81.6394 37.004 89.7528C33.624 97.8661 39.7093 109.359 51.204 110.261C62.696 111.162 59.3173 109.134 59.3173 109.134L50.752 87.0488Z" fill="#E4AE7C"/>
<path fill-rule="evenodd" clip-rule="evenodd" d="M153.094 87.0488C153.318 84.5701 163.46 81.6394 166.841 89.7528C170.222 97.8661 164.136 109.359 152.642 110.261C141.149 111.162 144.53 109.134 144.53 109.134L153.094 87.0488Z" fill="#E4AE7C"/>
<path fill-rule="evenodd" clip-rule="evenodd" d="M86.502 118.792C96.8073 118.663 107.038 118.663 117.343 118.792C109.702 133.602 94.142 133.602 86.502 118.792Z" fill="#88342A"/>
<path fill-rule="evenodd" clip-rule="evenodd" d="M109.891 127.448C104.852 130.715 98.9937 130.715 93.9551 127.448C98.9937 124.182 104.852 124.182 109.891 127.448Z" fill="#D17B65"/>
<path fill-rule="evenodd" clip-rule="evenodd" d="M41.739 95.6581C41.739 96.0221 41.4417 96.3194 41.0777 96.3194C40.711 96.3194 40.415 96.0221 40.415 95.6581C40.415 93.3221 40.8777 91.7794 41.6217 90.8648C42.2217 90.1261 42.991 89.7861 43.8497 89.7648C44.639 89.7474 45.487 90.0141 46.3284 90.4914C48.2937 91.6034 50.3124 93.9328 51.4137 96.4528C52.1017 98.0248 52.667 99.6901 52.8164 100.631C52.8657 100.945 52.875 101.207 52.835 101.403L52.827 101.438C52.711 101.959 52.403 102.191 51.8737 102.077C51.6644 102.033 51.4404 101.897 51.2004 101.655C50.3044 100.754 49.2284 100.383 48.3777 100.467C48.071 100.499 47.8004 100.593 47.595 100.741C47.411 100.873 47.271 101.059 47.2017 101.295C47.0364 101.851 47.215 102.679 47.9444 103.763C48.1484 104.067 48.0657 104.477 47.7644 104.679C47.4604 104.882 47.051 104.801 46.8484 104.499C45.8737 103.043 45.6644 101.825 45.935 100.917C46.0924 100.393 46.4044 99.9714 46.823 99.6714C47.2217 99.3848 47.711 99.2101 48.2497 99.1554C49.1964 99.0608 50.3177 99.3434 51.3324 100.049C51.0964 99.1994 50.683 98.0741 50.2044 96.9794C49.211 94.7088 47.4137 92.6221 45.6777 91.6381C45.0364 91.2741 44.4177 91.0714 43.8764 91.0834C43.4044 91.0941 42.9817 91.2848 42.6457 91.6968C42.0857 92.3848 41.739 93.6488 41.739 95.6581Z" fill="#D67F54"/>
<path fill-rule="evenodd" clip-rule="evenodd" d="M101.033 112.075C100.669 112.075 100.373 111.776 100.373 111.412C100.373 111.047 100.669 110.751 101.033 110.751C102.616 110.751 104.506 110.733 105.966 110.448C107.181 110.211 108.076 109.809 108.076 109.103C108.076 106.896 106.144 93.2374 106.138 93.1987C106.089 92.8374 106.341 92.5027 106.702 92.4534C107.062 92.404 107.397 92.656 107.446 93.0174C107.452 93.056 109.398 106.824 109.398 109.103C109.398 110.633 108.052 111.388 106.221 111.745C104.634 112.055 102.672 112.075 101.033 112.075Z" fill="#D67F54"/>
<path fill-rule="evenodd" clip-rule="evenodd" d="M163.145 95.6581C163.145 96.0221 162.848 96.3194 162.484 96.3194C162.117 96.3194 161.823 96.0221 161.823 95.6581C161.823 93.6488 161.473 92.3848 160.916 91.6968C160.58 91.2848 160.156 91.0941 159.684 91.0834C159.143 91.0714 158.525 91.2741 157.884 91.6381C156.147 92.6221 154.348 94.7088 153.356 96.9794C152.877 98.0741 152.465 99.1994 152.228 100.049C153.244 99.3434 154.365 99.0608 155.309 99.1554C155.848 99.2101 156.339 99.3848 156.736 99.6714C157.156 99.9714 157.468 100.393 157.624 100.917C157.895 101.825 157.687 103.043 156.713 104.499C156.509 104.801 156.1 104.882 155.796 104.679C155.495 104.477 155.413 104.067 155.617 103.763C156.344 102.679 156.524 101.851 156.359 101.295C156.288 101.059 156.151 100.873 155.965 100.741C155.759 100.593 155.489 100.499 155.181 100.467C154.332 100.383 153.256 100.754 152.36 101.655C152.12 101.897 151.895 102.033 151.687 102.077C151.157 102.191 150.847 101.959 150.732 101.438L150.725 101.403C150.685 101.207 150.695 100.945 150.744 100.631C150.893 99.6901 151.457 98.0248 152.145 96.4528C153.249 93.9328 155.268 91.6034 157.231 90.4914C158.075 90.0141 158.923 89.7474 159.711 89.7648C160.569 89.7861 161.337 90.1261 161.94 90.8648C162.683 91.7794 163.145 93.3221 163.145 95.6581Z" fill="#D67F54"/>
<path fill-rule="evenodd" clip-rule="evenodd" d="M98.0532 135.788C97.7398 135.604 97.6345 135.2 97.8172 134.885C98.0025 134.572 98.4065 134.467 98.7212 134.649C99.6305 135.183 100.789 135.451 101.949 135.451C103.107 135.451 104.247 135.185 105.119 134.656C105.429 134.468 105.835 134.567 106.024 134.877C106.211 135.189 106.112 135.593 105.801 135.783C104.713 136.443 103.331 136.773 101.949 136.773C100.572 136.773 99.1745 136.445 98.0532 135.788Z" fill="#D67F54"/>
<path fill-rule="evenodd" clip-rule="evenodd" d="M97.2153 123.185C102.967 123.163 108.711 123.181 114.477 123.243C115.518 121.947 116.481 120.464 117.343 118.792C111.958 118.724 106.593 118.692 101.227 118.696C96.3246 118.697 91.422 118.731 86.502 118.792C87.3633 120.464 88.3273 121.947 89.3686 123.243C91.9873 123.215 94.602 123.197 97.2153 123.185Z" fill="#EBEBEB"/>
<path fill-rule="evenodd" clip-rule="evenodd" d="M50.5938 130.418C52.4444 130.418 53.9551 126.076 53.9551 120.754C53.9551 115.432 52.4444 111.09 50.5938 111.09C48.7418 111.09 47.2324 115.432 47.2324 120.754C47.2324 126.076 48.7418 130.418 50.5938 130.418Z" fill="#D17B65"/>
<path fill-rule="evenodd" clip-rule="evenodd" d="M153.254 130.418C155.105 130.418 156.615 126.076 156.615 120.754C156.615 115.432 155.105 111.09 153.254 111.09C151.402 111.09 149.893 115.432 149.893 120.754C149.893 126.076 151.402 130.418 153.254 130.418Z" fill="#D17B65"/>
<path fill-rule="evenodd" clip-rule="evenodd" d="M50.5933 111.722C51.8893 111.722 52.948 110.62 52.948 109.268C52.948 107.918 51.8893 106.816 50.5933 106.816C49.296 106.816 48.2373 107.918 48.2373 109.268C48.2373 110.62 49.296 111.722 50.5933 111.722Z" fill="#D17B65"/>
<path fill-rule="evenodd" clip-rule="evenodd" d="M153.253 111.722C154.551 111.722 155.609 110.62 155.609 109.268C155.609 107.918 154.551 106.816 153.253 106.816C151.956 106.816 150.897 107.918 150.897 109.268C150.897 110.62 151.956 111.722 153.253 111.722Z" fill="#D17B65"/>
<path fill-rule="evenodd" clip-rule="evenodd" d="M98.0532 135.788C97.7398 135.604 97.6345 135.2 97.8172 134.885C98.0025 134.572 98.4065 134.467 98.7212 134.649C99.6305 135.183 100.789 135.451 101.949 135.451C103.107 135.451 104.247 135.185 105.119 134.656C105.429 134.468 105.835 134.567 106.024 134.877C106.211 135.189 106.112 135.593 105.801 135.783C104.713 136.443 103.331 136.773 101.949 136.773C100.572 136.773 99.1745 136.445 98.0532 135.788Z" fill="#D67F54"/>
<path fill-rule="evenodd" clip-rule="evenodd" d="M83.5434 86.951C85.8248 88.5977 86.3381 91.779 84.6874 94.0564C83.0381 96.3337 79.8501 96.8444 77.5688 95.199C75.2874 93.5524 74.7728 90.3697 76.4221 88.0937C78.0728 85.8164 81.2608 85.3057 83.5434 86.951Z" fill="#3F2716"/>
<path fill-rule="evenodd" clip-rule="evenodd" d="M119.774 86.951C117.493 88.5977 116.981 91.779 118.63 94.0564C120.279 96.3337 123.467 96.8444 125.75 95.199C128.031 93.5524 128.543 90.3697 126.895 88.0937C125.246 85.8164 122.057 85.3057 119.774 86.951Z" fill="#3F2716"/>
<path fill-rule="evenodd" clip-rule="evenodd" d="M85.9516 72.482C85.7716 72.394 85.5916 72.31 85.409 72.2314C83.3076 71.37 81.5236 71.1367 79.2516 71.3247C77.0276 71.5914 75.3663 72.162 73.501 73.3674C72.6316 74.0034 69.233 77.1234 70.1983 78.2754C70.5903 78.3967 73.9743 76.4367 74.969 76.0687C76.5143 75.5527 77.769 75.354 79.4063 75.394C80.933 75.4714 82.0836 75.7234 83.4756 76.3327C83.513 76.3407 83.765 76.4687 83.817 76.4954C86.6556 78.0607 86.401 79.0647 88.3356 77.5607C91.3156 75.762 88.2476 73.8367 85.9516 72.482Z" fill="#3F2716"/>
<path fill-rule="evenodd" clip-rule="evenodd" d="M117.895 72.482C118.075 72.394 118.254 72.31 118.438 72.2314C120.539 71.37 122.323 71.1367 124.594 71.3247C126.819 71.5914 128.479 72.162 130.346 73.3674C131.215 74.0034 134.614 77.1234 133.648 78.2754C133.256 78.3967 129.871 76.4367 128.878 76.0687C127.331 75.5527 126.078 75.354 124.439 75.394C122.914 75.4714 121.762 75.7234 120.37 76.3327C120.332 76.3407 120.08 76.4687 120.028 76.4954C117.19 78.0607 117.446 79.0647 115.511 77.5607C112.531 75.762 115.598 73.8367 117.895 72.482Z" fill="#3F2716"/>
<path fill-rule="evenodd" clip-rule="evenodd" d="M179.053 107.849C185.1 118.339 189.915 127.919 187.068 142.405C184.487 137.769 179.748 128.843 167.288 126.74C92.4692 114.124 169.508 22.4853 78.6785 41.0266C78.6785 41.0266 77.2679 28.0653 80.9265 17.8919C88.0679 -1.96405 110.632 -1.90539 126.388 3.63195C151.415 12.4266 159.12 42.8319 164.325 67.7733C168.352 87.0626 169.216 90.7839 179.053 107.849Z" fill="#52311D"/>
<path fill-rule="evenodd" clip-rule="evenodd" d="M83.7128 14.0697C75.2035 3.50569 40.8182 17.9217 37.7542 62.179C34.9955 102.023 6.26751 112.906 17.6222 149.756C22.7568 117.139 44.8342 123.135 62.6075 96.9177C78.4542 73.5417 94.7195 27.735 83.7128 14.0697Z" fill="#52311D"/>
<path fill-rule="evenodd" clip-rule="evenodd" d="M56.3138 169.521C74.3058 206.665 129.356 206.72 147.456 169.685C150.35 171.011 153.04 172.383 155.228 173.833C177.135 188.38 195.425 212.063 194.661 245.837H192.08H188.971H185.863H182.754H179.646H176.536H173.428H170.319H167.21H164.102H160.994H157.884H154.775H151.666H148.558H145.448H142.339H139.231H136.122H133.012H129.903H126.794H123.686H120.576H117.468H114.359H111.25H108.142H105.032H101.923H98.8152H95.7072H92.5978H89.4885H86.3792H83.2712H80.1618H77.0525H73.9432H70.8352H67.7272H64.6178H61.5085H58.3992H55.2912H52.1818H49.0725H45.9632H42.8552H39.7458H36.6365H33.5285H30.4205H27.3112H24.2018H21.0938H17.9845H14.8752H11.7658H9.18716C8.38049 210.167 28.8232 185.755 52.3378 171.473C53.4498 170.799 54.8045 170.156 56.3138 169.521Z" fill="#5C67A8"/>
<path fill-rule="evenodd" clip-rule="evenodd" d="M12.8359 219.353H191.012C192.337 223.556 193.333 227.981 193.953 232.628H9.89453C10.5132 227.981 11.5105 223.556 12.8359 219.353Z" fill="#CB516B"/>
<path fill-rule="evenodd" clip-rule="evenodd" d="M27.3628 192.803H80.2148C93.8535 198.96 109.993 198.957 123.631 192.803H176.483C179.833 196.876 182.847 201.297 185.413 206.079H18.4375C21.0015 201.297 24.0122 196.876 27.3628 192.803Z" fill="#CB516B"/>
<path fill-rule="evenodd" clip-rule="evenodd" d="M163.007 179.529C160.485 177.496 157.883 175.597 155.227 173.835C153.041 172.383 150.354 171.012 147.461 169.687C145.683 173.327 143.547 176.607 141.126 179.529H163.007ZM56.3075 169.524C58.1008 173.228 60.2635 176.563 62.7222 179.529H40.8408C44.5302 176.556 48.3888 173.872 52.3368 171.473C53.4475 170.799 54.7995 170.157 56.3075 169.524Z" fill="#CB516B"/>
<path fill-rule="evenodd" clip-rule="evenodd" d="M38.2807 218.444C38.2847 217.898 38.7314 217.46 39.2767 217.464C39.822 217.468 40.262 217.915 40.258 218.46L40.0327 245.846C40.03 246.391 39.5834 246.83 39.0354 246.827C38.4914 246.82 38.0514 246.376 38.0567 245.828L38.2807 218.444Z" fill="#48589B"/>
<path fill-rule="evenodd" clip-rule="evenodd" d="M163.813 218.444C163.817 217.898 164.262 217.46 164.809 217.464C165.354 217.468 165.793 217.915 165.79 218.46L165.565 245.846C165.562 246.391 165.116 246.83 164.569 246.827C164.022 246.82 163.584 246.376 163.589 245.828L163.813 218.444Z" fill="#48589B"/>
<path fill-rule="evenodd" clip-rule="evenodd" d="M148.67 170.251L148.607 170.501L140.775 202.261C139.801 206.223 141.787 210.345 145.213 211.473C148.639 212.6 152.206 210.303 153.181 206.341L160.311 177.429C158.645 176.173 156.947 174.976 155.227 173.835C153.35 172.587 151.099 171.4 148.67 170.251Z" fill="#EBEBEB"/>
<path fill-rule="evenodd" clip-rule="evenodd" d="M101.549 203.65H151.447L162.637 220.353C164.331 222.881 162.693 240.57 163.307 245.838H101.549V203.65Z" fill="#EBEBEB"/>
<path fill-rule="evenodd" clip-rule="evenodd" d="M54.4523 170.348L54.4896 170.501L62.3216 202.261C63.2976 206.221 61.311 210.345 57.8843 211.473C54.459 212.599 50.891 210.303 49.9176 206.341L42.9043 177.909C45.9603 175.573 49.119 173.428 52.3363 171.473C52.9683 171.091 53.679 170.716 54.4523 170.348Z" fill="#EBEBEB"/>
<path fill-rule="evenodd" clip-rule="evenodd" d="M101.549 203.65H51.6504L40.4611 220.353C38.7664 222.881 40.4051 240.57 39.7904 245.838H101.549V203.65Z" fill="#EBEBEB"/>
<path fill-rule="evenodd" clip-rule="evenodd" d="M61.7673 203.431C61.6766 203.079 61.8886 202.718 62.2406 202.626C62.5939 202.535 62.9539 202.747 63.0446 203.101C63.8153 206.071 62.5353 208.518 60.4673 209.991C59.6819 210.551 58.7793 210.966 57.8326 211.213C56.8819 211.459 55.8886 211.537 54.9273 211.417C52.4113 211.103 50.0939 209.486 49.2206 206.122C49.1286 205.769 49.3419 205.409 49.6953 205.318C50.0473 205.227 50.4059 205.439 50.4993 205.791C51.2099 208.537 53.0726 209.853 55.0873 210.103C55.8899 210.203 56.7139 210.139 57.5019 209.937C58.2926 209.73 59.0459 209.382 59.7033 208.914C61.3553 207.739 62.3806 205.79 61.7673 203.431Z" fill="#58556C"/>
<path fill-rule="evenodd" clip-rule="evenodd" d="M139.509 203.101C139.6 202.747 139.961 202.535 140.315 202.627C140.665 202.718 140.876 203.079 140.785 203.431C140.175 205.79 141.2 207.739 142.852 208.914C143.508 209.382 144.263 209.73 145.053 209.937C145.84 210.139 146.665 210.203 147.468 210.103C149.481 209.853 151.344 208.537 152.056 205.791C152.148 205.439 152.507 205.227 152.861 205.318C153.212 205.409 153.424 205.769 153.332 206.122C152.46 209.486 150.141 211.103 147.628 211.417C146.665 211.537 145.673 211.459 144.723 211.213C143.776 210.966 142.872 210.551 142.087 209.991C140.02 208.518 138.739 206.073 139.509 203.101Z" fill="#58556C"/>
<path fill-rule="evenodd" clip-rule="evenodd" d="M68.9633 245.402C68.9633 245.767 68.6673 246.063 68.302 246.063C67.9366 246.063 67.6406 245.767 67.6406 245.402V226.668C67.6406 226.303 67.9366 226.006 68.302 226.006H135.545C135.91 226.006 136.206 226.303 136.206 226.668V245.402C136.206 245.767 135.91 246.063 135.545 246.063C135.179 246.063 134.883 245.767 134.883 245.402V227.328H68.9633V245.402Z" fill="#58556C"/>
<path fill-rule="evenodd" clip-rule="evenodd" d="M87.1754 20.287C86.8994 20.5257 86.4821 20.4963 86.2448 20.2203C86.0061 19.9443 86.0368 19.5283 86.3128 19.2897C88.6848 17.2257 93.3261 14.0283 99.1581 11.6043C104.758 9.275 111.465 7.65234 118.345 8.40701C125.253 9.16568 132.315 12.311 138.586 19.5203C142.055 23.5123 145.282 28.7523 148.098 35.5257C155.23 52.6777 156.062 65.1283 156.709 74.8177C157.529 87.0857 158.046 94.8283 171.147 102.092C171.467 102.27 171.581 102.671 171.403 102.99C171.226 103.308 170.825 103.423 170.507 103.246C156.775 95.6323 156.241 87.611 155.39 74.907C154.75 65.311 153.926 52.9817 146.878 36.0323C144.118 29.3937 140.969 24.2723 137.589 20.383C131.569 13.4617 124.807 10.4457 118.205 9.72034C111.578 8.99368 105.091 10.5683 99.6648 12.823C93.9808 15.1857 89.4741 18.2897 87.1754 20.287Z" fill="#68422D"/>
<path fill-rule="evenodd" clip-rule="evenodd" d="M86.5824 28.4316C86.2571 28.5929 85.8611 28.4609 85.6998 28.1356C85.5371 27.8102 85.6678 27.4142 85.9944 27.2529C113.318 13.5142 127.237 21.4356 134.938 36.7502C140.968 48.7462 143.098 65.2782 144.912 79.3689C146.41 91.0036 147.692 100.958 150.729 105.073C155.053 110.933 161.166 112.928 167.386 114.956C172.298 116.558 177.276 118.182 181.604 121.717C181.886 121.946 181.929 122.362 181.698 122.645C181.469 122.928 181.053 122.97 180.77 122.74C176.636 119.362 171.776 117.777 166.978 116.212C160.558 114.12 154.248 112.06 149.669 105.854C146.426 101.46 145.125 91.3502 143.604 79.5342C141.804 65.5462 139.69 49.1356 133.758 37.3396C126.392 22.6876 112.997 15.1502 86.5824 28.4316Z" fill="#68422D"/>
<path fill-rule="evenodd" clip-rule="evenodd" d="M86.2811 27.1829C86.6437 27.1775 86.9437 27.4695 86.9477 27.8335C86.9531 28.1975 86.6611 28.4962 86.2971 28.5002C73.2891 28.6989 69.1557 41.2069 64.4624 55.4175C63.0411 59.7202 61.5691 64.1775 59.7677 68.5469C57.0251 75.2002 53.3877 81.1909 48.4877 86.7162C43.5957 92.2349 37.4477 97.2829 29.6811 102.055C29.3691 102.244 28.9637 102.147 28.7731 101.834C28.5837 101.524 28.6824 101.118 28.9917 100.928C36.6491 96.2242 42.6971 91.2602 47.5011 85.8429C52.2984 80.4335 55.8597 74.5642 58.5477 68.0455C60.3117 63.7642 61.7851 59.3069 63.2051 55.0029C68.0557 40.3202 72.3251 27.3949 86.2811 27.1829Z" fill="#68422D"/>
<path fill-rule="evenodd" clip-rule="evenodd" d="M86.2829 18.7868C86.6429 18.8481 86.8829 19.1894 86.8216 19.5494C86.7602 19.9094 86.4202 20.1494 86.0602 20.0894C85.0882 19.9228 84.1442 19.8001 83.2282 19.7228C82.2989 19.6428 81.4122 19.6081 80.5682 19.6134C80.2042 19.6148 79.9082 19.3201 79.9082 18.9574C79.9056 18.5921 80.2002 18.2974 80.5629 18.2948C81.4776 18.2894 82.4016 18.3241 83.3376 18.4041C84.2869 18.4841 85.2669 18.6121 86.2829 18.7868Z" fill="#68422D"/>
<path fill-rule="evenodd" clip-rule="evenodd" d="M86.2832 18.7868C86.6432 18.8481 86.8832 19.1894 86.8219 19.5494C86.7606 19.9094 86.4206 20.1494 86.0606 20.0894C85.0886 19.9228 84.1459 19.8014 83.2299 19.7241C82.2992 19.6454 81.4139 19.6094 80.5686 19.6134C80.2046 19.6148 79.9086 19.3214 79.9072 18.9574C79.9059 18.5934 80.2006 18.2974 80.5632 18.2961C81.4779 18.2908 82.4032 18.3268 83.3379 18.4068C84.2872 18.4854 85.2672 18.6121 86.2832 18.7868Z" fill="#68422D"/>
<path fill-rule="evenodd" clip-rule="evenodd" d="M86.2829 18.7868C86.6429 18.8481 86.8829 19.1894 86.8215 19.5494C86.7602 19.9094 86.4202 20.1494 86.0602 20.0894C84.7482 19.8641 83.4975 19.7201 82.3042 19.6561C81.1095 19.5921 79.9589 19.6014 78.8495 19.6814C78.4842 19.7068 78.1695 19.4321 78.1442 19.0694C78.1189 18.7041 78.3922 18.3894 78.7562 18.3641C79.9109 18.2801 81.1149 18.2694 82.3709 18.3388C83.6295 18.4068 84.9309 18.5534 86.2829 18.7868Z" fill="#68422D"/>
<path fill-rule="evenodd" clip-rule="evenodd" d="M86.2838 18.787C86.6438 18.8484 86.8838 19.1897 86.8224 19.5497C86.7611 19.9097 86.4211 20.1497 86.0611 20.0897C66.7824 16.7657 61.4384 28.5364 51.2478 50.991L51.2438 51.0017C50.1451 53.423 48.8278 55.6377 47.2851 57.7817C45.7478 59.919 43.9918 61.975 42.0064 64.091C41.7558 64.3577 41.3384 64.3697 41.0744 64.119C40.8078 63.871 40.7944 63.4524 41.0438 63.1857C42.9971 61.1044 44.7184 59.0897 46.2144 57.011C47.7024 54.943 48.9758 52.803 50.0384 50.459L50.0424 50.447C60.5131 27.3817 66.0011 15.2897 86.2838 18.787Z" fill="#68422D"/>
</svg>
