<svg width="204" height="246" viewBox="0 0 204 246" fill="none" xmlns="http://www.w3.org/2000/svg">
<path fill-rule="evenodd" clip-rule="evenodd" d="M101.704 245.346C157.721 245.346 203.408 199.658 203.408 143.642C203.408 87.6244 157.721 41.9364 101.704 41.9364C45.6867 41.9364 0 87.6244 0 143.642C0 199.658 45.6867 245.346 101.704 245.346Z" fill="#F0CA0C"/>
<path fill-rule="evenodd" clip-rule="evenodd" d="M69.4231 158.866C39.7978 166.624 7.89648 188.426 7.89648 244.857H100.644H101.703H102.763H195.511C195.511 188.426 163.608 166.624 133.983 158.866C128.318 157.385 123.958 158.784 123.494 151.832L122.155 131.772H101.703H81.2511L79.9138 151.832C79.4498 158.784 75.0898 157.385 69.4231 158.866Z" fill="#E4AE7C"/>
<path fill-rule="evenodd" clip-rule="evenodd" d="M69.4231 158.866C39.7978 166.624 7.89648 188.426 7.89648 244.857H100.644H101.703H102.763H195.511C195.511 189.384 164.68 167.374 135.492 159.276C128.199 172.258 114.979 179.026 101.86 178.905C88.9151 178.784 77.1245 172.121 69.8125 158.77C69.6831 158.801 69.5551 158.833 69.4231 158.866Z" fill="#E5E3F1"/>
<path fill-rule="evenodd" clip-rule="evenodd" d="M80.0439 149.886C92.8399 161.661 110.421 162.015 123.419 150.701L122.156 131.771H101.704H81.2519L80.0439 149.886Z" fill="#D67F54"/>
<path fill-rule="evenodd" clip-rule="evenodd" d="M75.4671 244.142C42.9672 244.32 24.9218 244.754 7.89648 244.842C7.90182 191.745 36.1551 169.313 64.1738 160.39C66.8218 178.15 73.0778 220.925 75.4671 244.142Z" fill="#1F1D2E"/>
<path fill-rule="evenodd" clip-rule="evenodd" d="M71.9705 215.336C61.2625 203.724 52.2159 188.05 46.1719 168.295C51.9892 164.906 58.0865 162.328 64.1732 160.39C65.9172 172.094 69.2305 194.66 71.9705 215.336Z" fill="#312F58"/>
<path fill-rule="evenodd" clip-rule="evenodd" d="M128.559 157.874C122.421 167.556 112.09 172.588 101.833 172.492C91.7045 172.398 82.4392 167.429 76.3912 157.482C74.6472 158.077 72.3725 158.15 69.8125 158.77C77.1245 172.122 88.9152 178.784 101.862 178.905C114.981 179.026 128.199 172.258 135.494 159.274C134.99 159.134 134.486 158.998 133.985 158.866C131.974 158.341 130.126 158.178 128.559 157.874Z" fill="#C4C2D5"/>
<path fill-rule="evenodd" clip-rule="evenodd" d="M127.94 244.142C160.44 244.32 178.487 244.754 195.511 244.842C195.506 191.745 167.252 169.313 139.234 160.39C136.586 178.15 130.33 220.925 127.94 244.142Z" fill="#1F1D2E"/>
<path fill-rule="evenodd" clip-rule="evenodd" d="M131.438 215.336C142.144 203.724 151.192 188.05 157.236 168.295C151.419 164.906 145.32 162.328 139.234 160.39C137.49 172.094 134.176 194.66 131.438 215.336Z" fill="#312F58"/>
<path fill-rule="evenodd" clip-rule="evenodd" d="M52.2505 88.3442C44.9131 48.8402 54.9105 3.23352 101.17 5.37619C101.502 5.36152 101.818 5.36952 102.146 5.35885C102.474 5.36952 102.79 5.36152 103.122 5.37619C149.18 3.24286 156.816 46.9722 152.138 86.7002C148.514 117.478 135.144 148.207 102.146 148.25C71.6065 148.211 57.4051 116.094 52.2505 88.3442Z" fill="#E4AE7C"/>
<path fill-rule="evenodd" clip-rule="evenodd" d="M160.011 45.7532C161.813 53.7865 152.049 96.2905 149.87 96.9718C147.786 97.6225 148.479 75.4118 144.901 70.6012C137.13 60.1465 143.845 51.5145 137.977 42.4465C135.821 41.0625 132.538 40.8158 127.446 42.3092C112.173 46.7905 102.414 47.6318 102.414 47.6318C102.414 47.6318 102.333 47.6238 102.177 47.6092C102.019 47.6238 101.939 47.6318 101.939 47.6318C101.939 47.6318 92.1805 46.7905 76.9072 42.3092C71.8152 40.8158 68.5312 41.0625 66.3765 42.4465C60.5085 51.5145 67.2232 60.1465 59.4525 70.6012C55.8739 75.4118 56.5672 97.6225 54.4832 96.9718C52.3032 96.2905 42.5392 53.7865 44.3419 45.7532C65.1379 -14.4895 139.214 -14.4895 160.011 45.7532Z" fill="#3F2716"/>
<path fill-rule="evenodd" clip-rule="evenodd" d="M99.7285 1.06704C116.143 -0.526293 141.542 16.6564 135.662 34.8244C135.328 35.8537 133.468 39.2004 132.12 40.243C126.888 44.2897 117.042 45.631 117.567 44.671C124.468 32.079 110.114 20.215 93.9098 45.355C83.5911 61.3617 68.8338 61.4284 60.0045 60.1017C42.7725 57.5124 35.6351 37.8164 40.7191 38.235C46.8618 38.7404 50.1871 36.495 54.0005 33.5404C68.5378 22.2697 86.2525 -0.331626 99.7285 1.06704Z" fill="#52311D"/>
<path fill-rule="evenodd" clip-rule="evenodd" d="M50.9767 86.0684C50.7514 83.5898 40.61 80.6591 37.2287 88.7724C33.8487 96.8858 39.9327 108.379 51.4274 109.28C62.9207 110.182 59.5407 108.152 59.5407 108.152L50.9767 86.0684Z" fill="#E4AE7C"/>
<path fill-rule="evenodd" clip-rule="evenodd" d="M153.319 86.0684C153.543 83.5898 163.684 80.6591 167.066 88.7724C170.447 96.8858 164.36 108.379 152.867 109.28C141.374 110.182 144.754 108.152 144.754 108.152L153.319 86.0684Z" fill="#E4AE7C"/>
<path fill-rule="evenodd" clip-rule="evenodd" d="M86.2832 112.77C96.5885 112.641 106.818 112.641 117.125 112.77C109.483 127.579 93.9232 127.579 86.2832 112.77Z" fill="#88342A"/>
<path fill-rule="evenodd" clip-rule="evenodd" d="M109.671 121.426C104.634 124.693 98.7737 124.693 93.7363 121.426C98.7737 118.16 104.634 118.158 109.671 121.426Z" fill="#D17B65"/>
<path fill-rule="evenodd" clip-rule="evenodd" d="M41.9627 94.6778C41.9627 95.0431 41.6653 95.3391 41.3 95.3391C40.9347 95.3391 40.6387 95.0431 40.6387 94.6778C40.6387 92.3418 41.1013 90.7991 41.844 89.8858C42.4453 89.1458 43.2147 88.8071 44.0733 88.7858C44.8627 88.7671 45.7107 89.0338 46.552 89.5098C48.5173 90.6231 50.536 92.9525 51.6373 95.4738C52.3253 97.0445 52.8893 98.7098 53.04 99.6511C53.0893 99.9645 53.0987 100.227 53.06 100.423L53.0507 100.459C52.9347 100.979 52.628 101.212 52.0973 101.096C51.888 101.054 51.664 100.918 51.424 100.675C50.528 99.7738 49.452 99.4031 48.6027 99.4885C48.2947 99.5205 48.024 99.6125 47.8187 99.7618C47.6333 99.8938 47.496 100.08 47.4253 100.316C47.26 100.872 47.44 101.699 48.168 102.784C48.3707 103.087 48.2893 103.498 47.9867 103.7C47.684 103.902 47.2747 103.82 47.0733 103.519C46.0973 102.064 45.8893 100.844 46.1587 99.9378C46.316 99.4111 46.628 98.9925 47.048 98.6911C47.4467 98.4045 47.936 98.2298 48.4733 98.1765C49.42 98.0818 50.54 98.3631 51.5573 99.0698C51.32 98.2191 50.9067 97.0938 50.428 96.0005C49.4347 93.7285 47.6373 91.6431 45.9013 90.6591C45.26 90.2951 44.64 90.0925 44.1 90.1045C43.6293 90.1151 43.2053 90.3058 42.868 90.7165C42.3093 91.4045 41.9627 92.6685 41.9627 94.6778Z" fill="#D67F54"/>
<path fill-rule="evenodd" clip-rule="evenodd" d="M86.1752 66.4613C85.9952 66.372 85.8152 66.288 85.6325 66.2093C83.5299 65.348 81.7459 65.1146 79.4752 65.3026C77.2512 65.5693 75.5899 66.1386 73.7259 67.3453C72.8552 67.9826 69.4565 71.1013 70.4205 72.252C70.8139 72.376 74.1979 70.4146 75.1912 70.048C76.7379 69.5306 77.9925 69.332 79.6299 69.3706C81.1579 69.448 82.3072 69.7013 83.6992 70.3106C83.7365 70.3186 83.9885 70.4466 84.0419 70.4733C86.8805 72.0386 86.6232 73.044 88.5592 71.5386C91.5392 69.74 88.4712 67.8146 86.1752 66.4613Z" fill="#3F2716"/>
<path fill-rule="evenodd" clip-rule="evenodd" d="M118.118 66.4613C118.297 66.372 118.477 66.288 118.661 66.2093C120.764 65.348 122.548 65.1146 124.818 65.3026C127.042 65.5693 128.704 66.1386 130.568 67.3453C131.44 67.9826 134.837 71.1013 133.873 72.252C133.48 72.376 130.096 70.4146 129.102 70.048C127.556 69.5306 126.301 69.332 124.664 69.3706C123.137 69.448 121.986 69.7013 120.594 70.3106C120.557 70.3186 120.305 70.4466 120.252 70.4733C117.413 72.0386 117.67 73.044 115.734 71.5386C112.754 69.74 115.822 67.8146 118.118 66.4613Z" fill="#3F2716"/>
<path fill-rule="evenodd" clip-rule="evenodd" d="M101.258 103.625C100.893 103.625 100.597 103.329 100.597 102.965C100.597 102.597 100.893 102.303 101.258 102.303C102.846 102.303 104.743 102.288 106.209 102.04C107.414 101.836 108.299 101.509 108.299 100.959C108.299 99.0562 106.37 87.2228 106.366 87.1882C106.309 86.8282 106.554 86.4908 106.914 86.4335C107.273 86.3762 107.611 86.6228 107.669 86.9828C107.674 87.0175 109.623 98.9748 109.623 100.959C109.623 102.353 108.267 103.031 106.426 103.341C104.846 103.609 102.891 103.625 101.258 103.625Z" fill="#D67F54"/>
<path fill-rule="evenodd" clip-rule="evenodd" d="M163.37 94.6778C163.37 95.0431 163.074 95.3391 162.707 95.3391C162.342 95.3391 162.047 95.0431 162.047 94.6778C162.047 92.6685 161.699 91.4045 161.14 90.7165C160.804 90.3058 160.38 90.1151 159.91 90.1045C159.368 90.0925 158.75 90.2951 158.107 90.6591C156.37 91.6431 154.574 93.7285 153.58 96.0005C153.102 97.0938 152.688 98.2191 152.452 99.0698C153.468 98.3631 154.59 98.0818 155.535 98.1765C156.072 98.2298 156.563 98.4045 156.96 98.6911C157.38 98.9925 157.692 99.4111 157.848 99.9378C158.12 100.844 157.911 102.064 156.936 103.519C156.734 103.82 156.324 103.902 156.022 103.7C155.719 103.498 155.639 103.087 155.842 102.784C156.568 101.699 156.75 100.872 156.583 100.316C156.512 100.08 156.375 99.8938 156.19 99.7618C155.983 99.6125 155.714 99.5205 155.406 99.4885C154.556 99.4031 153.48 99.7738 152.584 100.675C152.344 100.918 152.119 101.054 151.912 101.096C151.382 101.212 151.072 100.979 150.956 100.459L150.95 100.423C150.91 100.227 150.919 99.9645 150.968 99.6511C151.118 98.7098 151.683 97.0445 152.37 95.4738C153.474 92.9525 155.492 90.6231 157.455 89.5098C158.298 89.0338 159.147 88.7671 159.935 88.7858C160.794 88.8071 161.562 89.1458 162.163 89.8858C162.907 90.7991 163.37 92.3418 163.37 94.6778Z" fill="#D67F54"/>
<path fill-rule="evenodd" clip-rule="evenodd" d="M83.5875 79.3338C85.8701 80.9805 86.3835 84.1605 84.7328 86.4392C83.0835 88.7165 79.8941 89.2272 77.6141 87.5818C75.3301 85.9352 74.8181 82.7525 76.4688 80.4752C78.1181 78.1978 81.3061 77.6872 83.5875 79.3338Z" fill="#3F2716"/>
<path fill-rule="evenodd" clip-rule="evenodd" d="M119.82 79.3338C117.537 80.9805 117.024 84.1605 118.674 86.4392C120.325 88.7165 123.513 89.2272 125.793 87.5818C128.077 85.9352 128.59 82.7525 126.94 80.4752C125.289 78.1978 122.101 77.6872 119.82 79.3338Z" fill="#3F2716"/>
<path fill-rule="evenodd" clip-rule="evenodd" d="M39.9785 41.6974C39.7865 41.388 39.8838 40.9814 40.1931 40.7894C40.5038 40.5987 40.9091 40.6947 41.0998 41.004C45.1838 47.6254 50.4331 51.1227 55.8011 52.576C62.8385 54.4827 70.0905 52.8987 75.1958 50.236C82.0131 46.6814 87.5465 40.2414 92.7171 34.224C99.7998 25.9814 106.221 18.508 114.602 19.828C117.801 20.3307 120.6 21.996 122.636 24.3307C123.941 25.8294 124.934 27.6054 125.518 29.528C126.104 31.452 126.281 33.5267 125.952 35.616C125.448 38.8214 123.761 42.0587 120.55 44.8587C120.277 45.0987 119.86 45.0694 119.62 44.796C119.38 44.5227 119.408 44.1054 119.682 43.8667C122.641 41.2867 124.19 38.328 124.648 35.416C124.946 33.5254 124.786 31.652 124.258 29.9094C123.728 28.1694 122.826 26.5587 121.644 25.1987C119.802 23.0867 117.278 21.5827 114.4 21.1294C106.744 19.9254 100.55 27.132 93.7211 35.0814C88.4691 41.1934 82.8531 47.7294 75.8065 51.404C70.4531 54.196 62.8491 55.8547 55.4598 53.8534C49.7945 52.3187 44.2625 48.644 39.9785 41.6974Z" fill="#6C452C"/>
<path fill-rule="evenodd" clip-rule="evenodd" d="M127.504 42.8651C127.317 43.1758 126.913 43.2798 126.6 43.0918C126.286 42.9051 126.185 42.5011 126.372 42.1878C129.529 36.9224 130.588 31.8811 130.018 27.4664C129.672 24.7771 128.72 22.3158 127.272 20.1785C125.821 18.0385 123.868 16.2158 121.524 14.8104C117.193 12.2131 111.525 11.0305 105.193 11.8465C98.8211 12.6691 94.1038 18.1851 87.7664 25.5971C84.4344 29.4944 80.6624 33.9064 75.9584 38.4504C57.0878 56.6838 40.8798 39.9891 40.8331 39.9424C40.5771 39.6824 40.5771 39.2651 40.8371 39.0078C41.0931 38.7504 41.5118 38.7531 41.7678 39.0104C41.8131 39.0558 57.1171 54.8224 75.0438 37.4998C79.6998 33.0011 83.4504 28.6145 86.7651 24.7385C93.2891 17.1078 98.1464 11.4265 105.026 10.5398C111.664 9.68378 117.626 10.9345 122.201 13.6785C124.709 15.1811 126.802 17.1371 128.362 19.4398C129.925 21.7451 130.952 24.3998 131.325 27.2998C131.93 31.9958 130.824 37.3304 127.504 42.8651Z" fill="#6C452C"/>
<path fill-rule="evenodd" clip-rule="evenodd" d="M99.5922 104.433C101.112 109.778 102.296 109.778 103.815 104.433L121.344 107.552L123.238 111.858H106.454H101.704H96.9549H80.1709L82.0642 107.552L99.5922 104.433Z" fill="#B58460"/>
<path fill-rule="evenodd" clip-rule="evenodd" d="M94.2628 128.189C96.8894 129.664 101.704 129.885 101.704 129.885C101.704 129.885 106.517 129.664 109.144 128.189C109.627 137.955 93.7801 137.955 94.2628 128.189Z" fill="#B58460"/>
</svg>
