<svg width="204" height="234" viewBox="0 0 204 234" fill="none" xmlns="http://www.w3.org/2000/svg">
<path fill-rule="evenodd" clip-rule="evenodd" d="M101.704 224.411C157.721 224.411 203.408 178.723 203.408 122.707C203.408 66.688 157.721 21 101.704 21C45.6867 21 0 66.688 0 122.707C0 178.723 45.6867 224.411 101.704 224.411Z" fill="#4E7C4C"/>
<path d="M132.973 149.9L101.562 149.946L70.0695 149.9C70.0695 149.9 19 190.578 19 191.506C19 192.434 37.1674 233.669 42.3639 233.669H101.562H160.596C165.791 233.669 184 192.434 184 191.506C184 190.578 132.973 149.9 132.973 149.9Z" fill="#243659"/>
<path d="M101.564 128.784H68.0039L70.0317 150.13C70.0317 150.13 77.0685 168.966 101.564 174.533C126.061 168.966 133.018 150.174 133.018 150.174L134.968 128.784H101.564Z" fill="#FFCDB5"/>
<path d="M52.6576 82.7667C52.6576 82.7667 50.0593 76.4577 42.266 78.8701C34.4712 81.2824 41.5223 105.408 47.461 108.006C53.3997 110.604 58.0401 108.006 58.0401 108.006L52.6576 82.7667Z" fill="#EDB093"/>
<path d="M150.352 82.7667C150.352 82.7667 152.951 76.4577 160.744 78.8701C168.537 81.2824 161.486 105.408 155.549 108.006C149.609 110.604 144.97 108.006 144.97 108.006L150.352 82.7667Z" fill="#EDB093"/>
<path d="M68.001 128.784L69.1372 136.938C77.2976 142.057 89.6121 150.78 101.561 150.78C113.289 150.78 125.654 142.092 133.875 136.967L134.965 128.784H101.561H68.001Z" fill="#EDB093"/>
<path d="M154.703 52.3336C151.921 16.1467 120.12 6.68001 101.563 6.68001C82.633 6.68001 51.0865 16.1467 48.3023 52.3336C45.518 88.5205 57.2095 121.181 59.9938 126.564C62.7764 131.946 82.633 144.75 101.563 144.75C120.12 144.75 140.29 131.946 143.072 126.564C145.856 121.181 157.488 88.5205 154.703 52.3336Z" fill="#FFCDB5"/>
<path d="M83.595 81.9003C83.595 85.6586 80.547 88.7051 76.7902 88.7051C73.0318 88.7051 69.9854 85.6586 69.9854 81.9003C69.9854 78.1435 73.0318 75.097 76.7902 75.097C80.547 75.097 83.595 78.1435 83.595 81.9003Z" fill="#47291D"/>
<path d="M86.9348 82.8906C86.9348 82.8906 83.9948 77.4398 77.9353 76.8295C72.877 76.3178 67.7742 78.4982 66.2422 81.1425C66.2422 81.1425 66.0118 77.2459 70.5123 74.6015C74.3867 72.3243 84.3841 71.7887 86.9348 82.8906Z" fill="#47291D"/>
<path d="M88.3283 66.9004C88.3283 66.9004 86.3799 60.4055 82.8552 58.7353C79.3288 57.0666 70.5137 58.365 64.2031 62.8194C64.2031 62.8194 80.4412 62.7257 88.3283 66.9004Z" fill="#47291D"/>
<path d="M119.413 81.9008C119.413 85.6591 122.46 88.7056 126.218 88.7056C129.975 88.7056 133.021 85.6591 133.021 81.9008C133.021 78.144 129.975 75.0975 126.218 75.0975C122.46 75.0975 119.413 78.144 119.413 81.9008Z" fill="#47291D"/>
<path d="M116.071 82.8911C116.071 82.8911 119.011 77.4403 125.072 76.83C130.129 76.3183 135.233 78.4987 136.764 81.143C136.764 81.143 136.996 77.2464 132.495 74.602C128.619 72.3247 118.622 71.7892 116.071 82.8911Z" fill="#47291D"/>
<path d="M114.679 66.8999C114.679 66.8999 116.629 60.405 120.153 58.7348C123.68 57.0661 132.495 58.3645 138.805 62.8189C138.805 62.8189 122.567 62.7252 114.679 66.8999Z" fill="#47291D"/>
<path d="M101.563 104.943C97.8524 104.943 95.127 103.875 95.127 103.875C95.974 106.753 98.9187 108.376 101.563 108.376C104.532 108.376 107.152 106.753 108.001 103.875C108.001 103.875 105.275 104.943 101.563 104.943Z" fill="#D69272"/>
<path d="M82.3559 118.399C80.9956 118.232 80.8701 122.574 82.3559 124.8C83.8402 127.028 89.2211 132.687 101.563 132.687C113.904 132.687 121.883 124.244 123.089 121.181C124.297 118.119 124.11 115.893 123.089 115.801C122.069 115.708 109.729 121.739 82.3559 118.399Z" fill="#BF2A39"/>
<path d="M103.419 125.82C114.008 125.486 119.963 123.045 123.203 120.879C124.279 117.974 124.077 115.891 123.09 115.8C122.07 115.708 109.73 121.739 82.3566 118.398C81.419 118.284 81.071 120.305 81.4269 122.303C84.8182 124.041 91.488 126.198 103.419 125.82Z" fill="white"/>
<path d="M69.5407 144.75L101.562 174.442L79.295 198.752L54.8584 162.084L69.5407 144.75Z" fill="#BF2A39"/>
<path d="M133.646 144.75L101.624 174.442L123.893 198.751L148.328 162.083L133.646 144.75Z" fill="#BF2A39"/>
<path d="M68.551 43.5688C68.551 43.5688 75.3367 57.385 99.09 62.4687C99.09 62.4687 99.09 52.7033 96.6157 49.9827C96.6157 49.9827 116.725 62.3543 133.022 64.3328C133.022 64.3328 133.979 56.4156 131.998 53.6949C131.998 53.6949 147.587 67.0551 151.793 71.7558L153.993 82.8911L158.968 78.0823C158.968 78.0823 162.928 44.2918 156.495 29.4458C150.061 14.5999 121.853 0.000181517 99.09 0.000181517C76.3268 0.000181517 57.0264 10.8876 52.0777 22.2708C52.0777 22.2708 43.6647 27.2194 41.1887 36.1251C38.716 45.034 39.0513 72.4996 49.0281 82.8911C49.0281 82.8911 56.0363 72.0053 56.5321 65.8187C56.5321 65.8187 59.2528 72.0657 60.985 73.2719C60.985 73.2719 69.986 63.0234 68.551 43.5688Z" fill="#B88E51"/>
</svg>
