<svg width="204" height="247" viewBox="0 0 204 247" fill="none" xmlns="http://www.w3.org/2000/svg">
<path fill-rule="evenodd" clip-rule="evenodd" d="M12.6171 218.904H190.793C192.118 223.106 193.114 227.532 193.734 232.178H9.67578C10.2944 227.532 11.2918 223.106 12.6171 218.904Z" fill="#CB516B"/>
<path fill-rule="evenodd" clip-rule="evenodd" d="M163.594 217.995C163.598 217.448 164.043 217.011 164.59 217.015C165.135 217.019 165.574 217.465 165.571 218.011L165.346 245.396C165.343 245.941 164.897 246.38 164.35 246.377C163.803 246.371 163.365 245.927 163.37 245.379L163.594 217.995Z" fill="#48589B"/>
<path fill-rule="evenodd" clip-rule="evenodd" d="M68.7445 244.952C68.7445 245.317 68.4485 245.613 68.0832 245.613C67.7179 245.613 67.4219 245.317 67.4219 244.952V226.219C67.4219 225.853 67.7179 225.556 68.0832 225.556H135.326C135.691 225.556 135.987 225.853 135.987 226.219V244.952C135.987 245.317 135.691 245.613 135.326 245.613C134.961 245.613 134.665 245.317 134.665 244.952V226.879H68.7445V244.952Z" fill="#58556C"/>
<path fill-rule="evenodd" clip-rule="evenodd" d="M101.704 245.388C157.721 245.388 203.408 199.7 203.408 143.683C203.408 87.6655 157.721 41.9775 101.704 41.9775C45.6867 41.9775 0 87.6655 0 143.683C0 199.7 45.6867 245.388 101.704 245.388Z" fill="#9976AE"/>
<path fill-rule="evenodd" clip-rule="evenodd" d="M119.145 19.2227C131.146 14.18 159.237 24.824 162.301 69.0827C164.896 106.517 189.181 116.529 186.756 142.94C185.617 155.347 179.897 168.003 171.229 176.023C154.953 191.079 126.098 207.279 116.308 181.468C108.67 161.329 94.509 29.572 119.145 19.2227Z" fill="#3F2716"/>
<path fill-rule="evenodd" clip-rule="evenodd" d="M84.2312 19.2226C72.2298 14.18 44.1392 24.824 41.0752 69.0826C39.0632 98.1146 24.0045 112.011 18.4765 129.428C12.5872 147.993 22.1752 181.797 51.8418 188.16C66.2698 191.255 82.0671 194.651 87.0685 181.468C94.7058 161.329 108.867 29.572 84.2312 19.2226Z" fill="#3F2716"/>
<path fill-rule="evenodd" clip-rule="evenodd" d="M121.603 153.626L120.955 132.302H82.3221L80.9021 153.604C80.2741 163.02 60.0341 166.214 52.1181 171.024C28.6034 185.305 8.16076 209.717 8.96743 245.388H194.441C195.205 211.613 176.915 187.93 155.009 173.384C144.353 166.31 121.833 161.185 121.603 153.626Z" fill="#E4AE7C"/>
<path fill-rule="evenodd" clip-rule="evenodd" d="M81.1494 149.893C93.0667 160.829 109.427 161.136 121.511 150.575L120.955 132.303H82.3227L81.1494 149.893Z" fill="#D67F54"/>
<path fill-rule="evenodd" clip-rule="evenodd" d="M100.728 148.788C57.3735 150.189 30.5562 62.3263 59.2322 23.6796C67.7842 12.1543 77.7695 20.0623 97.2268 20.9636C97.5588 20.9476 97.8735 20.9556 98.2015 20.945C98.5322 20.9556 98.8455 20.9476 99.1788 20.9636C150.58 18.5823 163.822 57.3263 150.959 99.5903C142.626 126.968 124.805 149.502 102.68 148.788C102.352 148.798 102.031 148.778 101.703 148.778C101.376 148.778 101.056 148.798 100.728 148.788Z" fill="#E4AE7C"/>
<path fill-rule="evenodd" clip-rule="evenodd" d="M50.5332 86.5991C50.3079 84.1204 40.1679 81.1897 36.7852 89.3031C33.4052 97.4164 39.4906 108.91 50.9852 109.811C62.4772 110.712 59.0986 108.684 59.0986 108.684L50.5332 86.5991Z" fill="#E4AE7C"/>
<path fill-rule="evenodd" clip-rule="evenodd" d="M152.876 86.5991C153.1 84.1204 163.241 81.1897 166.622 89.3031C170.004 97.4164 163.917 108.91 152.424 109.811C140.93 110.712 144.312 108.684 144.312 108.684L152.876 86.5991Z" fill="#E4AE7C"/>
<path fill-rule="evenodd" clip-rule="evenodd" d="M86.2832 118.343C96.5885 118.213 106.819 118.213 117.125 118.343C109.483 133.152 93.9232 133.152 86.2832 118.343Z" fill="#88342A"/>
<path fill-rule="evenodd" clip-rule="evenodd" d="M109.672 126.999C104.634 130.265 98.775 130.265 93.7363 126.999C98.775 123.732 104.634 123.732 109.672 126.999Z" fill="#D17B65"/>
<path fill-rule="evenodd" clip-rule="evenodd" d="M41.5203 95.2084C41.5203 95.5724 41.223 95.8697 40.859 95.8697C40.4923 95.8697 40.1963 95.5724 40.1963 95.2084C40.1963 92.8724 40.659 91.3297 41.403 90.4151C42.003 89.6764 42.7723 89.3364 43.631 89.3151C44.4203 89.2977 45.2683 89.5644 46.1096 90.0417C48.075 91.1537 50.0936 93.4831 51.195 96.0031C51.883 97.5751 52.4483 99.2404 52.5976 100.182C52.647 100.495 52.6563 100.758 52.6163 100.954L52.6083 100.988C52.4923 101.51 52.1843 101.742 51.655 101.627C51.4456 101.583 51.2216 101.447 50.9816 101.206C50.0856 100.304 49.0096 99.9337 48.159 100.018C47.8523 100.05 47.5816 100.143 47.3763 100.291C47.1923 100.423 47.0523 100.61 46.983 100.846C46.8176 101.402 46.9963 102.23 47.7256 103.314C47.9296 103.618 47.847 104.027 47.5456 104.23C47.2416 104.432 46.8323 104.351 46.6296 104.05C45.655 102.594 45.4456 101.375 45.7163 100.467C45.8736 99.9431 46.1856 99.5217 46.6043 99.2217C47.003 98.9351 47.4923 98.7604 48.031 98.7057C48.9776 98.6111 50.099 98.8937 51.1136 99.5991C50.8776 98.7497 50.4643 97.6244 49.9856 96.5297C48.9923 94.2591 47.195 92.1724 45.459 91.1884C44.8176 90.8244 44.199 90.6217 43.6576 90.6337C43.1856 90.6444 42.763 90.8351 42.427 91.2471C41.867 91.9351 41.5203 93.1991 41.5203 95.2084Z" fill="#D67F54"/>
<path fill-rule="evenodd" clip-rule="evenodd" d="M100.814 111.625C100.45 111.625 100.154 111.326 100.154 110.962C100.154 110.597 100.45 110.301 100.814 110.301C102.397 110.301 104.288 110.284 105.748 109.998C106.962 109.761 107.857 109.36 107.857 108.653C107.857 106.446 105.925 92.7877 105.92 92.749C105.87 92.3877 106.122 92.053 106.484 92.0037C106.844 91.9543 107.178 92.2063 107.228 92.5677C107.233 92.6063 109.18 106.374 109.18 108.653C109.18 110.184 107.833 110.938 106.002 111.296C104.416 111.605 102.453 111.625 100.814 111.625Z" fill="#D67F54"/>
<path fill-rule="evenodd" clip-rule="evenodd" d="M162.926 95.2084C162.926 95.5724 162.629 95.8697 162.265 95.8697C161.898 95.8697 161.604 95.5724 161.604 95.2084C161.604 93.1991 161.254 91.9351 160.697 91.2471C160.361 90.8351 159.937 90.6444 159.465 90.6337C158.924 90.6217 158.306 90.8244 157.665 91.1884C155.928 92.1724 154.129 94.2591 153.137 96.5297C152.658 97.6244 152.246 98.7497 152.009 99.5991C153.025 98.8937 154.146 98.6111 155.09 98.7057C155.629 98.7604 156.12 98.9351 156.517 99.2217C156.937 99.5217 157.249 99.9431 157.405 100.467C157.676 101.375 157.468 102.594 156.494 104.05C156.29 104.351 155.881 104.432 155.577 104.23C155.276 104.027 155.194 103.618 155.398 103.314C156.125 102.23 156.305 101.402 156.14 100.846C156.069 100.61 155.932 100.423 155.746 100.291C155.54 100.143 155.27 100.05 154.962 100.018C154.113 99.9337 153.037 100.304 152.141 101.206C151.901 101.447 151.676 101.583 151.468 101.627C150.938 101.742 150.628 101.51 150.513 100.988L150.506 100.954C150.466 100.758 150.476 100.495 150.525 100.182C150.674 99.2404 151.238 97.5751 151.926 96.0031C153.03 93.4831 155.049 91.1537 157.012 90.0417C157.856 89.5644 158.704 89.2977 159.492 89.3151C160.35 89.3364 161.118 89.6764 161.721 90.4151C162.464 91.3297 162.926 92.8724 162.926 95.2084Z" fill="#D67F54"/>
<path fill-rule="evenodd" clip-rule="evenodd" d="M97.8344 135.338C97.5211 135.154 97.4158 134.75 97.5984 134.436C97.7838 134.122 98.1878 134.017 98.5024 134.2C99.4118 134.733 100.57 135.001 101.73 135.001C102.888 135.001 104.028 134.736 104.9 134.206C105.21 134.018 105.616 134.117 105.805 134.428C105.992 134.74 105.893 135.144 105.582 135.333C104.494 135.993 103.112 136.324 101.73 136.324C100.353 136.324 98.9558 135.996 97.8344 135.338Z" fill="#D67F54"/>
<path fill-rule="evenodd" clip-rule="evenodd" d="M96.9965 122.736C102.749 122.713 108.493 122.732 114.258 122.793C115.299 121.497 116.262 120.014 117.125 118.342C111.739 118.274 106.374 118.242 101.009 118.246C96.1059 118.248 91.2032 118.281 86.2832 118.342C87.1445 120.014 88.1085 121.497 89.1499 122.793C91.7685 122.765 94.3832 122.748 96.9965 122.736Z" fill="#EBEBEB"/>
<path fill-rule="evenodd" clip-rule="evenodd" d="M50.375 129.969C52.2257 129.969 53.7363 125.626 53.7363 120.305C53.7363 114.982 52.2257 110.641 50.375 110.641C48.523 110.641 47.0137 114.982 47.0137 120.305C47.0137 125.626 48.523 129.969 50.375 129.969Z" fill="#D17B65"/>
<path fill-rule="evenodd" clip-rule="evenodd" d="M153.035 129.969C154.886 129.969 156.396 125.626 156.396 120.305C156.396 114.982 154.886 110.641 153.035 110.641C151.183 110.641 149.674 114.982 149.674 120.305C149.674 125.626 151.183 129.969 153.035 129.969Z" fill="#D17B65"/>
<path fill-rule="evenodd" clip-rule="evenodd" d="M50.3746 111.272C51.6706 111.272 52.7292 110.171 52.7292 108.819C52.7292 107.468 51.6706 106.367 50.3746 106.367C49.0772 106.367 48.0186 107.468 48.0186 108.819C48.0186 110.171 49.0772 111.272 50.3746 111.272Z" fill="#D17B65"/>
<path fill-rule="evenodd" clip-rule="evenodd" d="M153.035 111.272C154.332 111.272 155.391 110.171 155.391 108.819C155.391 107.468 154.332 106.367 153.035 106.367C151.737 106.367 150.679 107.468 150.679 108.819C150.679 110.171 151.737 111.272 153.035 111.272Z" fill="#D17B65"/>
<path fill-rule="evenodd" clip-rule="evenodd" d="M97.8344 135.338C97.5211 135.154 97.4158 134.75 97.5984 134.436C97.7838 134.122 98.1878 134.017 98.5024 134.2C99.4118 134.733 100.57 135.001 101.73 135.001C102.888 135.001 104.028 134.736 104.9 134.206C105.21 134.018 105.616 134.117 105.805 134.428C105.992 134.74 105.893 135.144 105.582 135.333C104.494 135.993 103.112 136.324 101.73 136.324C100.353 136.324 98.9558 135.996 97.8344 135.338Z" fill="#D67F54"/>
<path fill-rule="evenodd" clip-rule="evenodd" d="M83.3247 86.5013C85.606 88.148 86.1193 91.3293 84.4687 93.6067C82.8193 95.884 79.6313 96.3947 77.35 94.7493C75.0687 93.1027 74.554 89.92 76.2033 87.644C77.854 85.3667 81.042 84.856 83.3247 86.5013Z" fill="#3F2716"/>
<path fill-rule="evenodd" clip-rule="evenodd" d="M119.555 86.5013C117.274 88.148 116.762 91.3293 118.411 93.6067C120.061 95.884 123.249 96.3947 125.531 94.7493C127.813 93.1027 128.325 89.92 126.677 87.644C125.027 85.3667 121.838 84.856 119.555 86.5013Z" fill="#3F2716"/>
<path fill-rule="evenodd" clip-rule="evenodd" d="M85.7329 72.0323C85.5529 71.9443 85.3729 71.8603 85.1902 71.7817C83.0889 70.9203 81.3049 70.687 79.0329 70.875C76.8089 71.1417 75.1476 71.7123 73.2822 72.9177C72.4129 73.5537 69.0142 76.6737 69.9796 77.8257C70.3716 77.947 73.7556 75.987 74.7502 75.619C76.2956 75.103 77.5502 74.9043 79.1876 74.9443C80.7142 75.0217 81.8649 75.2737 83.2569 75.883C83.2942 75.891 83.5462 76.019 83.5982 76.0457C86.4369 77.611 86.1822 78.615 88.1169 77.111C91.0969 75.3123 88.0289 73.387 85.7329 72.0323Z" fill="#3F2716"/>
<path fill-rule="evenodd" clip-rule="evenodd" d="M117.676 72.0323C117.856 71.9443 118.035 71.8603 118.219 71.7817C120.32 70.9203 122.104 70.687 124.375 70.875C126.6 71.1417 128.26 71.7123 130.127 72.9177C130.996 73.5537 134.395 76.6737 133.43 77.8257C133.038 77.947 129.652 75.987 128.659 75.619C127.112 75.103 125.859 74.9043 124.22 74.9443C122.695 75.0217 121.543 75.2737 120.151 75.883C120.114 75.891 119.862 76.019 119.81 76.0457C116.971 77.611 117.227 78.615 115.292 77.111C112.312 75.3123 115.379 73.387 117.676 72.0323Z" fill="#3F2716"/>
<path fill-rule="evenodd" clip-rule="evenodd" d="M178.834 107.4C184.881 117.889 189.696 127.469 186.849 141.956C184.268 137.32 179.529 128.393 167.069 126.29C92.2505 113.674 169.289 22.0356 78.4598 40.5769C78.4598 40.5769 77.0491 27.6156 80.7078 17.4422C87.8491 -2.41376 110.413 -2.35509 126.169 3.18224C151.196 11.9769 158.901 42.3822 164.106 67.3236C168.133 86.6129 168.997 90.3342 178.834 107.4Z" fill="#52311D"/>
<path fill-rule="evenodd" clip-rule="evenodd" d="M83.4941 13.62C74.9848 3.05598 40.5994 17.472 37.5354 61.7293C34.7768 101.573 6.04876 112.456 17.4034 149.307C22.5381 116.689 44.6154 122.685 62.3888 96.468C78.2354 73.092 94.5008 27.2853 83.4941 13.62Z" fill="#52311D"/>
<path fill-rule="evenodd" clip-rule="evenodd" d="M56.0951 169.072C74.0871 206.216 129.138 206.27 147.238 169.236C150.131 170.561 152.822 171.933 155.01 173.384C176.916 187.93 195.206 211.613 194.442 245.388H191.862H188.752H185.644H182.535H179.427H176.318H173.21H170.1H166.991H163.883H160.775H157.666H154.556H151.447H148.339H145.23H142.12H139.012H135.903H132.794H129.684H126.575H123.467H120.358H117.25H114.14H111.031H107.923H104.814H101.704H98.5964H95.4884H92.3791H89.2697H86.1604H83.0524H79.9431H76.8337H73.7244H70.6164H67.5084H64.3991H61.2897H58.1804H55.0724H51.9631H48.8537H45.7444H42.6364H39.5271H36.4177H33.3097H30.2017H27.0924H23.9831H20.8751H17.7657H14.6564H11.5471H8.96841C8.16174 209.717 28.6044 185.305 52.1191 171.024C53.2311 170.349 54.5857 169.706 56.0951 169.072Z" fill="#5C67A8"/>
<path fill-rule="evenodd" clip-rule="evenodd" d="M27.1441 192.353H79.9961C93.6347 198.51 109.775 198.508 123.412 192.353H176.264C179.615 196.426 182.628 200.848 185.195 205.629H18.2188C20.7827 200.848 23.7934 196.426 27.1441 192.353Z" fill="#CB516B"/>
<path fill-rule="evenodd" clip-rule="evenodd" d="M162.789 179.08C160.266 177.046 157.665 175.148 155.009 173.385C152.822 171.933 150.135 170.562 147.242 169.237C145.465 172.877 143.329 176.157 140.907 179.08H162.789ZM56.0887 169.074C57.8821 172.778 60.0447 176.113 62.5034 179.08H40.6221C44.3114 176.106 48.1701 173.422 52.1181 171.024C53.2287 170.349 54.5807 169.708 56.0887 169.074Z" fill="#CB516B"/>
<path fill-rule="evenodd" clip-rule="evenodd" d="M148.451 169.801L148.388 170.052L140.556 201.812C139.582 205.773 141.568 209.896 144.994 211.024C148.42 212.15 151.987 209.853 152.962 205.892L160.092 176.98C158.426 175.724 156.728 174.526 155.008 173.385C153.131 172.137 150.88 170.95 148.451 169.801Z" fill="#EBEBEB"/>
<path fill-rule="evenodd" clip-rule="evenodd" d="M101.33 203.201H151.229L162.418 219.903C164.113 222.431 162.474 240.121 163.089 245.389H101.33V203.201Z" fill="#EBEBEB"/>
<path fill-rule="evenodd" clip-rule="evenodd" d="M54.2335 169.898L54.2709 170.052L62.1029 201.812C63.0789 205.772 61.0922 209.896 57.6655 211.024C54.2402 212.149 50.6722 209.853 49.6989 205.892L42.6855 177.46C45.7415 175.124 48.9002 172.978 52.1175 171.024C52.7495 170.641 53.4602 170.266 54.2335 169.898Z" fill="#EBEBEB"/>
<path fill-rule="evenodd" clip-rule="evenodd" d="M101.33 203.201H51.4317L40.2424 219.903C38.5477 222.431 40.1864 240.121 39.5717 245.389H101.33V203.201Z" fill="#EBEBEB"/>
<path fill-rule="evenodd" clip-rule="evenodd" d="M61.5485 202.982C61.4579 202.63 61.6699 202.268 62.0219 202.176C62.3752 202.086 62.7352 202.298 62.8259 202.651C63.5965 205.622 62.3165 208.068 60.2485 209.542C59.4632 210.102 58.5605 210.516 57.6139 210.763C56.6632 211.01 55.6699 211.087 54.7085 210.967C52.1925 210.654 49.8752 209.036 49.0019 205.672C48.9099 205.319 49.1232 204.959 49.4765 204.868C49.8285 204.778 50.1872 204.99 50.2805 205.342C50.9912 208.087 52.8539 209.403 54.8685 209.654C55.6712 209.754 56.4952 209.69 57.2832 209.487C58.0739 209.28 58.8272 208.932 59.4845 208.464C61.1365 207.29 62.1619 205.34 61.5485 202.982Z" fill="#58556C"/>
<path fill-rule="evenodd" clip-rule="evenodd" d="M139.291 202.651C139.381 202.298 139.743 202.086 140.096 202.178C140.447 202.268 140.657 202.63 140.567 202.982C139.956 205.34 140.981 207.29 142.633 208.464C143.289 208.932 144.044 209.28 144.835 209.487C145.621 209.69 146.447 209.754 147.249 209.654C149.263 209.403 151.125 208.087 151.837 205.342C151.929 204.99 152.288 204.778 152.643 204.868C152.993 204.959 153.205 205.319 153.113 205.672C152.241 209.036 149.923 210.654 147.409 210.967C146.447 211.087 145.455 211.01 144.504 210.763C143.557 210.516 142.653 210.102 141.868 209.542C139.801 208.068 138.52 205.623 139.291 202.651Z" fill="#58556C"/>
<path fill-rule="evenodd" clip-rule="evenodd" d="M86.9567 19.8373C86.6807 20.076 86.2633 20.0466 86.026 19.7706C85.7873 19.4946 85.818 19.0786 86.094 18.84C88.466 16.776 93.1073 13.5786 98.9393 11.1546C104.539 8.8253 111.246 7.20264 118.126 7.9573C125.034 8.71597 132.097 11.8613 138.367 19.0706C141.837 23.0626 145.063 28.3026 147.879 35.076C155.011 52.228 155.843 64.6786 156.49 74.368C157.31 86.636 157.827 94.3786 170.929 101.643C171.249 101.82 171.362 102.221 171.185 102.54C171.007 102.859 170.606 102.973 170.289 102.796C156.557 95.1826 156.022 87.1613 155.171 74.4573C154.531 64.8613 153.707 52.532 146.659 35.5826C143.899 28.944 140.75 23.8226 137.37 19.9333C131.35 13.012 124.589 9.99597 117.986 9.27064C111.359 8.54397 104.873 10.1186 99.446 12.3733C93.762 14.736 89.2553 17.84 86.9567 19.8373Z" fill="#68422D"/>
<path fill-rule="evenodd" clip-rule="evenodd" d="M86.3637 27.9819C86.0384 28.1432 85.6424 28.0112 85.481 27.6859C85.3184 27.3605 85.449 26.9645 85.7757 26.8032C113.1 13.0645 127.018 20.9859 134.72 36.3005C140.749 48.2965 142.88 64.8285 144.693 78.9192C146.192 90.5539 147.473 100.509 150.51 104.623C154.834 110.483 160.948 112.478 167.168 114.506C172.08 116.109 177.057 117.733 181.385 121.267C181.668 121.497 181.71 121.913 181.48 122.195C181.25 122.478 180.834 122.521 180.552 122.29C176.417 118.913 171.557 117.327 166.76 115.762C160.34 113.67 154.029 111.61 149.45 105.405C146.208 101.01 144.906 90.9005 143.385 79.0845C141.585 65.0965 139.472 48.6859 133.54 36.8899C126.173 22.2379 112.778 14.7005 86.3637 27.9819Z" fill="#68422D"/>
<path fill-rule="evenodd" clip-rule="evenodd" d="M86.0623 26.7332C86.425 26.7278 86.725 27.0198 86.729 27.3838C86.7343 27.7478 86.4423 28.0465 86.0783 28.0505C73.0703 28.2492 68.937 40.7572 64.2436 54.9678C62.8223 59.2705 61.3503 63.7278 59.549 68.0972C56.8063 74.7505 53.169 80.7412 48.269 86.2665C43.377 91.7852 37.229 96.8332 29.4623 101.605C29.1503 101.794 28.745 101.697 28.5543 101.384C28.365 101.074 28.4636 100.668 28.773 100.478C36.4303 95.7745 42.4783 90.8105 47.2823 85.3932C52.0796 79.9838 55.641 74.1145 58.329 67.5958C60.093 63.3145 61.5663 58.8572 62.9863 54.5532C67.837 39.8705 72.1063 26.9452 86.0623 26.7332Z" fill="#68422D"/>
<path fill-rule="evenodd" clip-rule="evenodd" d="M86.0641 18.3371C86.4241 18.3984 86.6641 18.7397 86.6028 19.0997C86.5415 19.4597 86.2015 19.6997 85.8415 19.6397C84.8695 19.4731 83.9255 19.3504 83.0095 19.2731C82.0801 19.1931 81.1935 19.1584 80.3495 19.1637C79.9855 19.1651 79.6895 18.8704 79.6895 18.5077C79.6868 18.1424 79.9815 17.8477 80.3441 17.8451C81.2588 17.8397 82.1828 17.8744 83.1188 17.9544C84.0681 18.0344 85.0481 18.1624 86.0641 18.3371Z" fill="#68422D"/>
<path fill-rule="evenodd" clip-rule="evenodd" d="M86.0645 18.3371C86.4245 18.3984 86.6645 18.7397 86.6031 19.0997C86.5418 19.4597 86.2018 19.6997 85.8418 19.6397C84.8698 19.4731 83.9271 19.3517 83.0111 19.2744C82.0805 19.1957 81.1951 19.1597 80.3498 19.1637C79.9858 19.1651 79.6898 18.8717 79.6885 18.5077C79.6871 18.1437 79.9818 17.8477 80.3445 17.8464C81.2591 17.8411 82.1845 17.8771 83.1191 17.9571C84.0685 18.0357 85.0485 18.1624 86.0645 18.3371Z" fill="#68422D"/>
<path fill-rule="evenodd" clip-rule="evenodd" d="M86.0641 18.3371C86.4241 18.3984 86.6641 18.7397 86.6028 19.0997C86.5415 19.4597 86.2015 19.6997 85.8415 19.6397C84.5295 19.4144 83.2788 19.2704 82.0855 19.2064C80.8908 19.1424 79.7401 19.1517 78.6308 19.2317C78.2655 19.2571 77.9508 18.9824 77.9255 18.6197C77.9001 18.2544 78.1735 17.9397 78.5375 17.9144C79.6921 17.8304 80.8961 17.8197 82.1521 17.8891C83.4108 17.9571 84.7121 18.1037 86.0641 18.3371Z" fill="#68422D"/>
<path fill-rule="evenodd" clip-rule="evenodd" d="M86.065 18.3373C86.425 18.3987 86.665 18.74 86.6037 19.1C86.5423 19.46 86.2023 19.7 85.8423 19.64C66.5637 16.316 61.2197 28.0867 51.029 50.5413L51.025 50.552C49.9263 52.9733 48.609 55.188 47.0663 57.332C45.529 59.4693 43.773 61.5253 41.7877 63.6413C41.537 63.908 41.1197 63.92 40.8557 63.6693C40.589 63.4213 40.5757 63.0027 40.825 62.736C42.7783 60.6547 44.4997 58.64 45.9957 56.5613C47.4837 54.4933 48.757 52.3533 49.8197 50.0093L49.8237 49.9973C60.2943 26.932 65.7823 14.84 86.065 18.3373Z" fill="#68422D"/>
</svg>
