<svg width="204" height="238" viewBox="0 0 204 238" fill="none" xmlns="http://www.w3.org/2000/svg">
<path fill-rule="evenodd" clip-rule="evenodd" d="M101.704 237.411C157.721 237.411 203.408 191.723 203.408 135.705C203.408 79.688 157.721 34 101.704 34C45.6867 34 0 79.688 0 135.705C0 191.723 45.6867 237.411 101.704 237.411Z" fill="#C9EFCF"/>
<path d="M102.047 131.541L72.9629 131.593L75.9962 151.563C75.9962 151.563 89.9962 183.347 102.047 194.192C114.098 183.347 128.056 151.563 128.056 151.563L131.05 131.593L102.047 131.541Z" fill="#FFCDB5"/>
<path d="M52.1376 79.8118C52.1376 79.8118 47.419 76.0958 45.311 76.8984C43.2003 77.7024 41.3923 83.7291 41.5923 88.1464C41.795 92.5638 46.615 103.712 49.627 105.32C52.6403 106.925 56.5563 106.324 56.5563 106.324L52.1376 79.8118Z" fill="#EDB093"/>
<path d="M152.042 79.8118C152.042 79.8118 156.76 76.0958 158.87 76.8984C160.978 77.7024 162.788 83.7291 162.586 88.1464C162.384 92.5638 157.564 103.712 154.552 105.32C151.54 106.925 147.623 106.324 147.623 106.324L152.042 79.8118Z" fill="#EDB093"/>
<path d="M72.9629 131.593L74.5922 142.268C83.9442 148.604 95.3376 155.724 96.7749 155.724H102.047H107.046C108.494 155.724 120.063 148.493 129.463 142.121L131.05 131.566L102.047 131.526L72.9629 131.593Z" fill="#EDB093"/>
<path d="M151.719 40.3457C146.158 14.187 115.302 12.4297 102.047 12.4297C88.3887 12.4297 57.7993 14.187 52.238 40.3457C46.8167 65.8537 52.4393 92.5643 54.85 104.416C57.2593 116.264 60.322 129.422 62.13 131.982C63.9367 134.54 94.3647 146.39 96.7753 146.39H102.047H107.046C109.457 146.39 139.918 134.54 141.725 131.982C143.533 129.422 146.63 116.315 149.039 104.466C151.449 92.615 157.141 65.8537 151.719 40.3457Z" fill="#FFCDB5"/>
<path d="M88.3419 122.658C88.3419 122.658 88.4579 122.693 88.6472 122.732C88.8459 122.77 89.1352 122.83 89.5059 122.906C90.2565 123.046 91.3179 123.238 92.5925 123.426C93.2285 123.506 93.9192 123.59 94.6472 123.682C95.3805 123.744 96.1432 123.832 96.9392 123.87C97.7312 123.949 98.5539 123.957 99.3872 123.997C100.219 124.042 101.069 123.998 101.914 124.028C102.763 124 103.614 123.972 104.45 123.945C105.287 123.888 106.114 123.832 106.911 123.774C107.705 123.658 108.483 123.606 109.222 123.522C109.958 123.445 110.65 123.324 111.301 123.241C111.945 123.142 112.553 123.106 113.074 122.994C113.598 122.896 114.067 122.836 114.451 122.778C115.223 122.672 115.675 122.629 115.675 122.629L115.718 122.625C116.054 122.59 116.354 122.838 116.385 123.174C116.41 123.418 116.286 123.642 116.089 123.76C116.089 123.76 115.694 123.993 114.983 124.37C114.27 124.736 113.257 125.3 111.949 125.746C111.297 125.97 110.602 126.284 109.833 126.472C109.063 126.665 108.255 126.906 107.406 127.088C106.543 127.228 105.655 127.37 104.753 127.516C103.839 127.592 102.909 127.666 101.975 127.698C101.042 127.684 100.107 127.709 99.1899 127.618C98.2725 127.538 97.3712 127.45 96.5085 127.281C95.6432 127.145 94.8205 126.929 94.0472 126.714C93.2725 126.504 92.5512 126.257 91.8992 125.996C90.5885 125.498 89.5579 124.917 88.8592 124.49C88.5085 124.27 88.2485 124.08 88.0579 123.94C87.8832 123.802 87.7899 123.73 87.7899 123.73C87.5232 123.522 87.4739 123.137 87.6805 122.869C87.8392 122.666 88.1059 122.588 88.3419 122.658Z" fill="#D69272"/>
<path d="M109.309 106.719C109.309 106.719 109.189 106.955 108.911 107.335C108.633 107.707 108.21 108.217 107.613 108.729C107.025 109.253 106.257 109.785 105.329 110.214C104.867 110.429 104.337 110.609 103.806 110.754C103.254 110.851 102.61 110.938 102.073 110.963L101.982 110.679L101.814 110.39H101.793L101.749 110.662L101.566 110.778L101.203 110.801C100.953 110.759 100.746 110.79 100.462 110.721C99.8888 110.561 99.2728 110.378 98.8181 110.158C98.3648 109.935 97.9261 109.706 97.5581 109.442C97.1848 109.186 96.8368 108.935 96.5501 108.665C95.3648 107.627 94.8648 106.653 94.8648 106.653L94.8448 106.618C94.8021 106.534 94.8354 106.434 94.9181 106.393C94.9674 106.366 95.0261 106.369 95.0714 106.393C95.0714 106.393 95.2874 106.502 95.6648 106.694C96.0354 106.898 96.5914 107.139 97.2381 107.445C97.5568 107.609 97.9234 107.734 98.2941 107.893C98.6648 108.059 99.0861 108.135 99.4861 108.303C99.8941 108.455 100.291 108.507 100.702 108.627C101.122 108.685 101.725 108.721 102.073 108.737C102.535 108.705 102.95 108.685 103.391 108.635C103.822 108.521 104.254 108.455 104.665 108.311C105.067 108.146 105.481 108.057 105.855 107.902C106.229 107.746 106.595 107.625 106.917 107.465C107.559 107.159 108.121 106.925 108.494 106.727C108.874 106.538 109.091 106.429 109.091 106.429C109.181 106.385 109.289 106.421 109.334 106.51C109.359 106.562 109.358 106.622 109.334 106.671L109.309 106.719Z" fill="#D69272"/>
<path d="M87.2843 85.0332C87.2843 85.0332 83.3563 83.2172 78.587 83.1505C73.1256 83.0759 68.6816 84.2425 68.6816 84.2425C68.6816 84.2425 71.167 79.3105 78.2216 79.6852C83.895 79.9892 86.9843 83.7905 87.2843 85.0332Z" fill="#47291D"/>
<path d="M84.1433 85.5421C84.1433 88.4768 81.7646 90.8555 78.8299 90.8555C75.8953 90.8555 73.5166 88.4768 73.5166 85.5421C73.5166 82.6061 75.8953 80.2275 78.8299 80.2275C81.7646 80.2275 84.1433 82.6061 84.1433 85.5421Z" fill="#47291D"/>
<path d="M116.669 85.0332C116.669 85.0332 120.598 83.2172 125.368 83.1505C130.829 83.0759 135.273 84.2425 135.273 84.2425C135.273 84.2425 132.786 79.3105 125.733 79.6852C120.058 79.9892 116.97 83.7905 116.669 85.0332Z" fill="#47291D"/>
<path d="M119.811 85.5421C119.811 88.4768 122.189 90.8555 125.124 90.8555C128.059 90.8555 130.437 88.4768 130.437 85.5421C130.437 82.6061 128.059 80.2275 125.124 80.2275C122.189 80.2275 119.811 82.6061 119.811 85.5421Z" fill="#47291D"/>
<path d="M116.252 69.16C116.252 69.16 114.266 71.8894 114.587 75.644C114.587 75.644 119.386 74.9974 123.308 74.2027C130.283 72.788 138.97 69.28 138.97 69.28C138.97 69.28 128.342 64.7667 116.252 69.16Z" fill="#47291D"/>
<path d="M87.8462 69.16C87.8462 69.16 89.8329 71.8894 89.5116 75.644C89.5116 75.644 84.7142 74.9974 80.7916 74.2027C73.8156 72.788 65.1289 69.28 65.1289 69.28C65.1289 69.28 75.7556 64.7667 87.8462 69.16Z" fill="#47291D"/>
<path d="M63.5859 161.097L74.4819 207.499L102.047 194.192L75.3633 147.4L63.5859 161.097Z" fill="#E3E3E3"/>
<path d="M128.681 147.399L102.046 194.192L130.167 207.498L140.607 161.096L128.681 147.399Z" fill="#E3E3E3"/>
<path d="M63.5853 161.465L80.6507 237.056H38.404L14 196.064L63.5853 161.465Z" fill="#243659"/>
<path d="M140.578 161.465L123.513 237.056H165.759L190.163 196.064L140.578 161.465Z" fill="#243659"/>
<path d="M142.288 216.254L135.612 237.057H160.838L142.288 216.254Z" fill="#8F182E"/>
<path d="M160.822 211.709L135.612 237.057H160.822V211.709Z" fill="#B51E3A"/>
<path d="M110.283 237.057H93.2607L97.5047 217.057H106.045L110.283 237.057Z" fill="#A11B33"/>
<path d="M112.851 206.39L110.388 201.057H93.1612L90.7012 206.39H90.7052L97.0852 218.39H106.467L112.853 206.39H112.851Z" fill="#B51E3A"/>
<path d="M49.9559 32.3673L40.8653 44.6713C40.8653 44.6713 38.8293 71.9647 51.5186 85.542L55.4773 81.278C55.4773 81.278 55.9453 59.5913 56.5573 58.0527C57.1693 56.514 61.0933 52.9767 65.1293 44.0567C65.1293 44.0567 74.2426 54.9767 96.0826 60.514C96.0826 60.514 94.5453 51.5927 92.8533 48.5167C92.8533 48.5167 110.22 59.4367 126.761 60.6673C126.761 60.6673 125.923 52.7207 122.847 46.6193C122.847 46.6193 134.997 55.2833 141.303 59.7447C141.303 59.7447 148.225 71.334 149.456 80.2287L152.637 83.734C152.637 83.734 163.76 74.51 162.603 49.5927C161.889 34.226 146.227 10.5247 128.231 4.68066C110.233 -1.16334 83.7266 -0.242003 78.8306 0.681997C73.9346 1.60466 52.5559 10.986 51.4786 14.062C50.4013 17.1393 49.2013 25.4447 49.9559 32.3673Z" fill="#3D3D3D"/>
</svg>
