<svg width="204" height="247" viewBox="0 0 204 247" fill="none" xmlns="http://www.w3.org/2000/svg">
<path fill-rule="evenodd" clip-rule="evenodd" d="M101.704 233.411C157.721 233.411 203.408 187.723 203.408 131.707C203.408 75.688 157.721 30 101.704 30C45.6867 30 0 75.688 0 131.707C0 187.723 45.6867 233.411 101.704 233.411Z" fill="#243659"/>
<path d="M153.507 135.102C153.507 161.08 129.408 182.141 99.6804 182.141C69.9526 182.141 45.8535 161.08 45.8535 135.102C45.8535 109.124 69.9526 88.0645 99.6804 88.0645C129.408 88.0645 153.507 109.124 153.507 135.102Z" fill="#B88E51"/>
<path d="M185.212 205.626C183.237 203.487 124.522 165.627 124.522 165.627H99.8352H74.8365C74.8365 165.627 16.1207 203.487 14.1475 205.626C12.1743 207.765 30.5947 239.828 33.7185 243.446C36.8437 247.065 40.1742 246.894 45.006 246.894H99.8352H154.352C159.184 246.894 162.514 247.065 165.638 243.446C168.763 239.828 187.185 207.765 185.212 205.626Z" fill="#D4D4D4"/>
<path d="M74.7124 157.634C74.7124 157.634 62.2729 169.065 60.1343 178.439C57.9986 187.814 58.2338 217.708 74.681 217.708C91.1282 217.708 99.587 203.522 99.587 193.325V157.8L74.7124 157.634Z" fill="#ADADAD"/>
<path d="M124.823 157.635C124.823 157.635 137.44 169.065 139.578 178.439C141.717 187.815 141.209 217.708 124.762 217.708C108.316 217.708 99.5879 203.522 99.5879 193.325V157.8L124.823 157.635Z" fill="#ADADAD"/>
<path d="M99.5869 138.181L73.9238 138.063V165.255C73.9238 176 86.2107 193.324 99.5869 193.324C112.963 193.324 125.25 176 125.25 165.255V138.063L99.5869 138.181Z" fill="#FFCDB5"/>
<path d="M49.6727 85.2966C49.6727 85.2966 44.1637 79.923 41.2025 80.9909C38.2426 82.0616 35.9401 88.6399 38.0787 95.2182C40.2158 101.797 42.6011 107.143 44.4916 108.54C46.3835 109.939 53.4552 111.172 53.622 110.513C53.7859 109.856 49.6727 85.2966 49.6727 85.2966Z" fill="#EDB093"/>
<path d="M149.742 85.2966C149.742 85.2966 155.251 79.923 158.213 80.9909C161.174 82.0616 163.476 88.6399 161.339 95.2182C159.201 101.797 156.815 107.143 154.923 108.54C153.033 109.939 145.96 111.172 145.796 110.513C145.63 109.856 149.742 85.2966 149.742 85.2966Z" fill="#EDB093"/>
<path d="M73.9238 138.062V147.665C83.9039 153.539 92.2344 161.745 99.4215 161.745C106.716 161.745 116.696 153.435 125.25 147.405V138.062L99.5869 138.181L73.9238 138.062Z" fill="#EDB093"/>
<path d="M150.922 41.356C141.524 13.0667 115.225 6.48694 99.6716 6.48694C84.1155 6.48694 57.7039 13.0667 48.3069 41.356C38.9099 69.6424 51.7101 113.686 60.1347 128.159C68.5608 142.631 87.3562 153.193 99.6716 153.193C111.984 153.193 130.722 142.631 139.147 128.159C147.573 113.686 160.321 69.6424 150.922 41.356Z" fill="#FFCDB5"/>
<path d="M85.0439 127.049C85.0439 127.049 85.1694 127.087 85.3718 127.126C85.5843 127.169 85.8951 127.233 86.2886 127.313C87.0927 127.464 88.2276 127.67 89.5891 127.87C90.2706 127.954 91.0077 128.047 91.7876 128.145C92.5703 128.209 93.3887 128.302 94.2398 128.345C95.0853 128.43 95.9636 128.439 96.8546 128.48C97.7457 128.53 98.6525 128.483 99.5578 128.513C100.467 128.484 101.376 128.455 102.27 128.425C103.165 128.362 104.047 128.302 104.903 128.244C105.748 128.118 106.581 128.062 107.371 127.976C108.159 127.889 108.901 127.76 109.595 127.675C110.284 127.568 110.935 127.528 111.493 127.408C112.051 127.303 112.553 127.24 112.964 127.177C113.789 127.064 114.274 127.017 114.274 127.017L114.317 127.013C114.678 126.977 114.998 127.241 115.031 127.601C115.058 127.861 114.926 128.101 114.715 128.228C114.715 128.228 114.294 128.476 113.534 128.881C112.771 129.269 111.685 129.875 110.286 130.351C109.591 130.59 108.849 130.925 108.025 131.128C107.203 131.335 106.34 131.591 105.43 131.786C104.508 131.935 103.56 132.087 102.595 132.243C101.617 132.325 100.621 132.402 99.6248 132.439C98.6254 132.422 97.6245 132.449 96.6451 132.352C95.6642 132.268 94.7004 132.173 93.7793 131.992C92.854 131.848 91.9715 131.617 91.146 131.386C90.3162 131.161 89.5464 130.897 88.8492 130.617C87.4477 130.086 86.3456 129.465 85.5985 129.008C85.2235 128.772 84.9455 128.569 84.7431 128.417C84.5563 128.272 84.4551 128.195 84.4551 128.195C84.1685 127.974 84.1158 127.562 84.3367 127.275C84.5078 127.056 84.793 126.975 85.0439 127.049Z" fill="#D69272"/>
<path d="M95.5982 136.718C95.5982 136.718 95.6338 136.729 95.6909 136.739C95.7465 136.75 95.8334 136.769 95.9418 136.79C96.1628 136.832 96.4765 136.889 96.8528 136.944C97.0396 136.967 97.2421 136.993 97.4588 137.02C97.6741 137.038 97.8993 137.064 98.1346 137.074C98.367 137.098 98.6093 137.101 98.8546 137.114C99.1012 137.125 99.3521 137.114 99.6002 137.122C99.8526 137.114 100.102 137.104 100.347 137.098C100.595 137.08 100.839 137.064 101.076 137.047C101.308 137.013 101.539 136.998 101.753 136.973C101.974 136.95 102.177 136.914 102.368 136.89C102.559 136.86 102.737 136.85 102.892 136.817C103.046 136.787 103.184 136.974 103.297 136.954C103.525 136.923 103.656 137.112 103.656 137.112H103.672C103.769 137.112 103.857 136.974 103.869 137.073C103.875 137.144 103.837 137.11 103.78 137.144C103.78 137.144 103.664 137.162 103.454 137.274C103.243 137.379 102.944 137.523 102.559 137.654C102.366 137.72 102.162 137.798 101.936 137.855C101.709 137.911 101.469 137.976 101.22 138.031C100.966 138.071 100.705 138.109 100.439 138.153C100.168 138.175 99.8939 138.195 99.6188 138.205C99.3436 138.2 99.0698 138.207 98.7975 138.182C98.5266 138.158 98.2615 138.13 98.0063 138.082C97.7525 138.042 97.5101 137.978 97.282 137.914C97.0539 137.851 96.8414 137.778 96.6475 137.701C96.2626 137.554 95.9589 137.383 95.7522 137.258C95.6481 137.192 95.5711 137.137 95.5155 137.095C95.4642 137.055 95.4371 137.034 95.4371 137.034C95.3573 136.973 95.3444 136.859 95.4057 136.78C95.4514 136.719 95.5312 136.698 95.5982 136.718Z" fill="#EDB093"/>
<path d="M80.4543 122.94C80.4543 122.94 80.1378 123.506 79.6658 124.354C79.4377 124.773 79.1725 125.256 78.9416 125.774C78.712 126.281 78.5124 126.85 78.4982 127.294C78.5281 127.579 78.5609 127.865 78.5908 128.145C78.6365 128.464 78.6693 128.779 78.6892 129.086C78.7448 129.699 78.7634 130.274 78.7634 130.77C78.7719 131.761 78.6735 132.438 78.6735 132.438C78.665 132.498 78.6122 132.538 78.5509 132.53C78.5167 132.525 78.4868 132.5 78.4711 132.471C78.4711 132.471 78.1703 131.856 77.878 130.911C77.7269 130.439 77.5729 129.886 77.4403 129.285C77.3647 128.987 77.2991 128.677 77.2435 128.36C77.1879 128.022 77.1081 127.79 77.0967 127.277C77.128 126.407 77.4631 125.743 77.7896 125.168C78.1332 124.602 78.5081 124.134 78.856 123.762C79.5603 123.024 80.1278 122.64 80.1278 122.64C80.2319 122.57 80.373 122.599 80.4443 122.701C80.4928 122.776 80.4942 122.868 80.4543 122.94Z" fill="#D69272"/>
<path d="M118.452 122.64C118.452 122.64 119.019 123.023 119.724 123.762C120.07 124.134 120.445 124.6 120.79 125.167C121.117 125.742 121.452 126.406 121.483 127.276C121.469 127.789 121.392 128.022 121.335 128.36C121.279 128.676 121.215 128.987 121.141 129.285C121.007 129.885 120.853 130.438 120.7 130.91C120.409 131.855 120.107 132.47 120.107 132.47C120.083 132.523 120.02 132.544 119.966 132.52C119.933 132.503 119.912 132.471 119.906 132.437C119.906 132.437 119.806 131.76 119.816 130.769C119.816 130.273 119.836 129.698 119.891 129.085C119.91 128.779 119.945 128.464 119.987 128.144C120.02 127.865 120.05 127.578 120.083 127.293C120.066 126.85 119.868 126.281 119.637 125.773C119.407 125.256 119.141 124.772 118.912 124.353C118.441 123.505 118.125 122.939 118.125 122.939C118.064 122.829 118.104 122.691 118.214 122.63C118.292 122.587 118.382 122.593 118.452 122.64Z" fill="#D69272"/>
<path d="M107.465 110.005C107.465 110.005 107.336 110.257 107.04 110.665C106.741 111.063 106.291 111.607 105.65 112.153C105.022 112.715 104.202 113.283 103.21 113.745C102.718 113.973 102.149 114.164 101.58 114.319C100.991 114.423 100.301 114.517 99.7279 114.544L99.6296 114.542L99.4514 114.532L99.4271 114.527L99.3786 114.522L99.1862 114.496L98.7984 114.443C98.5289 114.402 98.3093 114.395 98.0057 114.322C97.394 114.151 96.7339 113.937 96.2477 113.702C95.763 113.464 95.2939 113.211 94.9004 112.928C94.4998 112.651 94.1291 112.38 93.824 112.089C92.5551 110.982 92.019 109.939 92.019 109.939L91.9991 109.899C91.952 109.81 91.9891 109.701 92.0761 109.656C92.1302 109.629 92.1915 109.63 92.2414 109.656C92.2414 109.656 92.4724 109.773 92.8759 109.979C93.2737 110.196 93.8668 110.455 94.5583 110.781C94.8976 110.957 95.2911 111.09 95.6874 111.258C96.0838 111.438 96.5329 111.519 96.9606 111.702C97.3983 111.861 97.8217 111.917 98.2623 112.045C98.71 112.108 99.3558 112.145 99.7279 112.162C100.221 112.131 100.665 112.106 101.138 112.054C101.597 111.933 102.06 111.861 102.5 111.709C102.929 111.532 103.372 111.436 103.773 111.27C104.171 111.103 104.564 110.973 104.906 110.802C105.595 110.475 106.194 110.227 106.593 110.015C107.001 109.811 107.233 109.696 107.233 109.696C107.327 109.648 107.443 109.686 107.492 109.781C107.52 109.838 107.518 109.902 107.492 109.954L107.465 110.005Z" fill="#D69272"/>
<path d="M84.817 86.8314C84.817 86.8314 80.8278 84.8183 74.6202 85.0222C69.2153 85.1989 65.2446 87.3247 65.2446 87.3247C65.2446 87.3247 63.5181 86.9569 62.4502 85.7208C62.4502 85.7208 64.6986 84.6985 66.1086 84.1168C67.8195 83.4125 77.4175 79.1011 84.817 86.8314Z" fill="#47291D"/>
<path d="M79.883 87.7148C79.883 90.2697 77.5833 92.3413 74.7433 92.3413C71.9061 92.3413 69.6035 90.2697 69.6035 87.7148C69.6035 85.1599 71.9061 83.0898 74.7433 83.0898C77.5833 83.0898 79.883 85.1599 79.883 87.7148Z" fill="#47291D"/>
<path d="M114.422 86.8314C114.422 86.8314 118.41 84.8183 124.619 85.0222C130.022 85.1989 133.994 87.3247 133.994 87.3247C133.994 87.3247 135.719 86.9569 136.789 85.7208C136.789 85.7208 134.54 84.6985 133.13 84.1168C131.419 83.4125 121.821 79.1011 114.422 86.8314Z" fill="#47291D"/>
<path d="M119.356 87.7143C119.356 90.2692 121.656 92.3408 124.495 92.3408C127.333 92.3408 129.635 90.2692 129.635 87.7143C129.635 85.1594 127.333 83.0893 124.495 83.0893C121.656 83.0893 119.356 85.1594 119.356 87.7143Z" fill="#47291D"/>
<path d="M114.794 75.2359C113.419 76.0371 111.968 72.8506 113.2 70.7135C114.433 68.5749 122.092 67.3431 128.907 68.3282C135.733 69.3148 137.161 73.016 137.161 73.016C137.161 73.016 134.416 71.6416 128.826 71.6074C124.53 71.5803 119.017 72.7694 114.794 75.2359Z" fill="#47291D"/>
<path d="M84.4449 75.2359C85.8179 76.0371 87.2707 72.8506 86.0375 70.7135C84.8042 68.5749 77.1466 67.3431 70.3317 68.3282C63.5053 69.3148 62.0781 73.016 62.0781 73.016C62.0781 73.016 64.8212 71.6416 70.4129 71.6074C74.7086 71.5803 80.2219 72.7694 84.4449 75.2359Z" fill="#47291D"/>
<path d="M71.1098 18.1103C71.1098 18.1103 93.4709 70.3603 152.901 82.7199C152.901 82.7199 162.334 70.9591 159.046 46.3995C155.755 21.8385 132.949 2.74376 107.51 0.338557C82.0736 -2.06522 68.0402 9.11819 68.0402 9.11819C68.0402 9.11819 49.6184 10.6551 42.8205 35.2147C36.024 59.7757 39.0195 74.1513 46.5117 83.8491C59.7068 70.3004 77.4699 45.1278 71.1098 18.1103Z" fill="#B88E51"/>
</svg>
