<svg width="204" height="244" viewBox="0 0 204 244" fill="none" xmlns="http://www.w3.org/2000/svg">
<path fill-rule="evenodd" clip-rule="evenodd" d="M101.705 231.411C157.723 231.411 203.411 185.723 203.411 129.707C203.411 73.688 157.723 28 101.705 28C45.6867 28 0 73.688 0 129.707C0 185.723 45.6867 231.411 101.705 231.411Z" fill="#630711"/>
<path d="M128.686 155.22H101.736H74.4791L11 201.181L35.6667 244H101.736H167.498L192.165 201.181L128.686 155.22Z" fill="#EDC7C7"/>
<path d="M14.7646 207.36L19.6165 217.225H183.549L188.401 207.36H14.7646Z" fill="#CF9393"/>
<path d="M70.0025 158.038L58.3652 166.494H144.797L133.16 158.038H70.0025Z" fill="#CF9393"/>
<path d="M35.9884 183.404L24.3525 191.859H178.81L167.174 183.404H35.9884Z" fill="#CF9393"/>
<path d="M111.443 194.678H93.123V244H111.443V194.678Z" fill="#CF9393"/>
<path d="M101.736 133.63L70.9971 133.685L74.2016 154.791C74.2016 154.791 88.9997 188.384 101.736 199.846C114.472 188.384 129.227 154.791 129.227 154.791L132.388 133.685L101.736 133.63Z" fill="#FFCDB5"/>
<path d="M48.9869 78.958C48.9869 78.958 43.9997 75.0305 41.7703 75.8803C39.5424 76.7286 37.6301 83.0982 37.8429 87.7669C38.0557 92.437 43.1499 104.218 46.3347 105.917C49.5181 107.614 53.657 106.979 53.657 106.979L48.9869 78.958Z" fill="#EDB093"/>
<path d="M154.575 78.958C154.575 78.958 159.564 75.0305 161.792 75.8803C164.021 76.7286 165.934 83.0982 165.721 87.7669C165.508 92.437 160.412 104.218 157.229 105.917C154.044 107.614 149.905 106.979 149.905 106.979L154.575 78.958Z" fill="#EDB093"/>
<path d="M70.9971 133.686L72.7191 145.095C82.6033 151.793 94.645 159.448 96.1627 159.448H101.736H107.019C108.55 159.448 120.777 151.677 130.712 144.944L132.388 133.721L101.736 133.649L70.9971 133.686Z" fill="#EDB093"/>
<path d="M154.235 37.2472C148.359 9.60003 115.747 7.74129 101.737 7.74129C87.3024 7.74129 54.971 9.60003 49.0932 37.2472C43.3634 64.2068 49.3074 92.4374 51.8538 104.962C54.4003 117.486 57.6372 131.517 59.5481 134.223C61.459 136.93 93.6171 149.583 96.1635 149.583H101.737H107.02C109.568 149.583 141.763 136.93 143.672 134.223C145.584 131.517 148.855 117.603 151.403 105.079C153.951 92.5543 159.965 64.2068 154.235 37.2472Z" fill="#FFCDB5"/>
<path d="M63.1096 114.95C63.1096 114.95 62.8236 114.702 62.3233 114.267C62.0753 114.047 61.7653 113.793 61.4299 113.479C61.1029 113.156 60.7337 112.791 60.3307 112.393C59.9178 112.008 59.5303 111.525 59.0892 111.052C58.6467 110.582 58.2239 110.042 57.7772 109.497C57.322 108.96 56.895 108.365 56.4525 107.772C55.9988 107.187 55.5943 106.55 55.1631 105.936C54.7404 105.316 54.3472 104.67 53.9484 104.052C53.5721 103.412 53.186 102.796 52.8436 102.18C52.1488 100.957 51.5386 99.7957 51.0426 98.7881C50.7749 98.2456 50.5423 97.7566 50.3408 97.3211C50.8932 100.261 51.4231 102.841 51.8543 104.963C51.8825 105.101 51.9121 105.241 51.9403 105.382C51.9544 105.4 51.967 105.416 51.9811 105.435C52.4744 106.026 52.9549 106.639 53.4693 107.226C53.9921 107.808 54.4867 108.407 55.0278 108.957C55.5591 109.512 56.0678 110.066 56.6061 110.565C57.1318 111.071 57.6306 111.568 58.1464 111.998C58.658 112.431 59.1103 112.869 59.5838 113.217C60.0432 113.574 60.466 113.9 60.8408 114.191C61.2227 114.468 61.5722 114.691 61.8512 114.884C62.4121 115.263 62.732 115.479 62.732 115.479C62.8673 115.57 63.0504 115.549 63.1604 115.424C63.2773 115.29 63.2632 115.084 63.128 114.966L63.1096 114.95Z" fill="#D69272"/>
<path d="M153.21 95.8532C153.151 95.9899 153.085 96.1464 153.001 96.3451C152.745 96.9355 152.357 97.7839 151.86 98.7886C151.364 99.7962 150.754 100.957 150.059 102.181C149.717 102.796 149.332 103.412 148.956 104.051C148.555 104.671 148.164 105.315 147.741 105.936C147.31 106.549 146.902 107.186 146.452 107.772C146.008 108.364 145.581 108.959 145.127 109.497C144.679 110.043 144.256 110.582 143.813 111.053C143.372 111.525 142.985 112.007 142.572 112.393C142.17 112.792 141.8 113.155 141.473 113.48C141.137 113.794 140.827 114.047 140.579 114.266C140.079 114.701 139.793 114.951 139.793 114.951L139.775 114.966C139.639 115.083 139.625 115.289 139.742 115.424C139.852 115.55 140.037 115.571 140.169 115.479C140.169 115.479 140.491 115.264 141.053 114.883C141.33 114.692 141.68 114.469 142.063 114.191C142.437 113.901 142.858 113.574 143.319 113.216C143.792 112.869 144.245 112.431 144.756 111.999C145.272 111.569 145.771 111.071 146.298 110.564C146.835 110.066 147.345 109.511 147.876 108.956C148.416 108.408 148.911 107.808 149.433 107.226C149.946 106.639 150.43 106.026 150.922 105.436C151.103 105.198 151.285 104.964 151.468 104.73C151.963 102.299 152.577 99.3016 153.21 95.8532Z" fill="#D69272"/>
<path d="M87.252 124.244C87.252 124.244 87.376 124.28 87.5761 124.32C87.7847 124.362 88.0919 124.424 88.4822 124.504C89.277 124.652 90.3988 124.857 91.746 125.054C92.4182 125.138 93.1467 125.23 93.9175 125.326C94.6912 125.391 95.4987 125.482 96.34 125.524C97.1756 125.608 98.0465 125.616 98.9259 125.657C99.8066 125.706 100.704 125.66 101.598 125.691C102.495 125.661 103.394 125.632 104.277 125.602C105.162 125.541 106.035 125.482 106.878 125.423C107.716 125.3 108.541 125.245 109.32 125.158C110.099 125.074 110.831 124.947 111.517 124.861C112.198 124.755 112.842 124.717 113.391 124.599C113.947 124.494 114.443 124.431 114.848 124.369C115.664 124.258 116.141 124.211 116.141 124.211L116.187 124.207C116.541 124.173 116.859 124.434 116.892 124.787C116.917 125.047 116.786 125.284 116.579 125.408C116.579 125.408 116.162 125.654 115.411 126.053C114.657 126.438 113.584 127.035 112.203 127.507C111.513 127.744 110.78 128.074 109.967 128.274C109.154 128.478 108.3 128.732 107.402 128.925C106.49 129.071 105.551 129.224 104.597 129.376C103.633 129.458 102.648 129.535 101.663 129.57C100.676 129.553 99.6868 129.582 98.7187 129.486C97.7492 129.401 96.7966 129.307 95.8848 129.129C94.9702 128.985 94.1007 128.757 93.282 128.53C92.4632 128.308 91.7023 128.047 91.0132 127.771C89.6279 127.245 88.5372 126.631 87.7988 126.18C87.4282 125.946 87.1534 125.746 86.9533 125.596C86.7672 125.453 86.6686 125.375 86.6686 125.375C86.3868 125.157 86.3346 124.749 86.553 124.468C86.7221 124.251 87.004 124.17 87.252 124.244Z" fill="#D69272"/>
<path d="M97.6846 133.799C97.6846 133.799 97.7198 133.81 97.7762 133.82C97.8325 133.833 97.9171 133.85 98.0242 133.872C98.244 133.912 98.554 133.968 98.9232 134.024C99.1093 134.047 99.3108 134.071 99.5236 134.098C99.7364 134.117 99.959 134.141 100.192 134.151C100.423 134.176 100.662 134.178 100.906 134.191C101.147 134.203 101.394 134.191 101.64 134.199C101.89 134.191 102.136 134.182 102.379 134.175C102.624 134.157 102.863 134.141 103.097 134.126C103.328 134.092 103.557 134.076 103.77 134.052C103.985 134.029 104.187 133.995 104.375 133.969C104.564 133.941 104.742 133.931 104.893 133.897C105.046 133.868 105.183 133.996 105.294 133.979C105.52 133.95 105.651 134.082 105.651 134.082H105.663C105.761 134.082 105.848 133.998 105.858 134.095C105.865 134.167 105.828 134.158 105.772 134.195C105.772 134.195 105.658 134.224 105.451 134.336C105.241 134.441 104.945 134.589 104.564 134.718C104.374 134.784 104.173 134.864 103.948 134.921C103.724 134.977 103.489 135.042 103.241 135.094C102.99 135.135 102.732 135.174 102.469 135.216C102.202 135.238 101.93 135.262 101.659 135.27C101.387 135.264 101.115 135.271 100.847 135.246C100.579 135.222 100.318 135.195 100.065 135.147C99.8139 135.107 99.5743 135.045 99.3488 134.981C99.1234 134.921 98.9134 134.849 98.7231 134.771C98.3412 134.627 98.0397 134.458 97.8368 134.334C97.7353 134.268 97.6564 134.213 97.6042 134.172C97.5521 134.133 97.5253 134.112 97.5253 134.112C97.4478 134.052 97.4323 133.94 97.4943 133.862C97.5394 133.802 97.6169 133.779 97.6846 133.799Z" fill="#EDB093"/>
<path d="M80.765 120.182C80.765 120.182 80.4521 120.741 79.9857 121.579C79.7616 121.994 79.4981 122.471 79.2712 122.983C79.0443 123.483 78.8456 124.047 78.8301 124.485C78.8611 124.766 78.8921 125.049 78.9231 125.327C78.9682 125.642 79.0006 125.954 79.0204 126.255C79.0739 126.861 79.0922 127.43 79.0922 127.921C79.1021 128.9 79.0035 129.57 79.0035 129.57C78.9964 129.627 78.9429 129.667 78.8851 129.66C78.8484 129.654 78.8189 129.632 78.8048 129.602C78.8048 129.602 78.5074 128.995 78.2185 128.059C78.0692 127.593 77.917 127.046 77.7845 126.452C77.7112 126.158 77.6464 125.851 77.5914 125.539C77.5365 125.205 77.459 124.974 77.4463 124.468C77.4773 123.607 77.8085 122.951 78.1312 122.384C78.4708 121.825 78.8414 121.361 79.1852 120.995C79.8814 120.265 80.4423 119.884 80.4423 119.884C80.5451 119.815 80.6846 119.843 80.7551 119.946C80.803 120.018 80.8044 120.11 80.765 120.182Z" fill="#D69272"/>
<path d="M122.874 119.885C122.874 119.885 123.433 120.265 124.129 120.995C124.473 121.361 124.844 121.824 125.183 122.385C125.506 122.951 125.837 123.608 125.868 124.467C125.855 124.975 125.778 125.206 125.723 125.54C125.668 125.851 125.603 126.158 125.529 126.453C125.399 127.046 125.245 127.593 125.096 128.059C124.807 128.995 124.51 129.603 124.51 129.603C124.486 129.655 124.422 129.676 124.37 129.65C124.338 129.634 124.315 129.603 124.311 129.57C124.311 129.57 124.212 128.901 124.221 127.921C124.221 127.431 124.241 126.862 124.294 126.256C124.314 125.954 124.346 125.641 124.39 125.327C124.422 125.049 124.453 124.766 124.484 124.486C124.467 124.047 124.272 123.484 124.043 122.983C123.816 122.471 123.553 121.994 123.327 121.58C122.861 120.741 122.551 120.182 122.551 120.182C122.489 120.072 122.528 119.937 122.637 119.875C122.714 119.834 122.805 119.84 122.874 119.885Z" fill="#D69272"/>
<path d="M109.412 107.397C109.412 107.397 109.285 107.647 108.991 108.05C108.696 108.442 108.251 108.981 107.62 109.521C106.998 110.076 106.187 110.637 105.206 111.092C104.72 111.318 104.157 111.508 103.596 111.662C103.014 111.763 102.332 111.856 101.766 111.883L101.667 111.88L101.491 111.87L101.469 111.867L101.421 111.86L101.229 111.836L100.846 111.784C100.581 111.742 100.364 111.736 100.062 111.663C99.4576 111.495 98.8051 111.282 98.3246 111.05C97.844 110.815 97.3818 110.567 96.9929 110.285C96.5983 110.013 96.2305 109.744 95.9289 109.458C94.6747 108.361 94.1463 107.331 94.1463 107.331L94.1251 107.292C94.08 107.204 94.1153 107.097 94.2026 107.051C94.2548 107.024 94.3154 107.027 94.3647 107.051C94.3647 107.051 94.5944 107.166 94.9918 107.371C95.385 107.585 95.9712 107.841 96.6547 108.164C96.9915 108.339 97.379 108.468 97.7722 108.636C98.1639 108.812 98.6078 108.894 99.0306 109.073C99.4632 109.232 99.8817 109.287 100.317 109.412C100.76 109.476 101.395 109.511 101.766 109.529C102.253 109.497 102.692 109.474 103.157 109.422C103.612 109.301 104.071 109.232 104.504 109.081C104.93 108.905 105.366 108.811 105.762 108.647C106.157 108.482 106.544 108.354 106.884 108.185C107.563 107.862 108.157 107.616 108.55 107.406C108.953 107.204 109.182 107.09 109.182 107.09C109.277 107.044 109.391 107.082 109.439 107.176C109.466 107.231 109.464 107.294 109.439 107.345L109.412 107.397Z" fill="#D69272"/>
<path d="M86.1343 84.4771C86.1343 84.4771 81.9828 82.5563 76.9407 82.4873C71.1686 82.4083 66.4717 83.6414 66.4717 83.6414C66.4717 83.6414 69.0998 78.4273 76.556 78.8247C82.5521 79.146 85.8158 83.1623 86.1343 84.4771Z" fill="#47291D"/>
<path d="M82.2737 85.0157C82.2737 87.8172 80.002 90.0889 77.2005 90.0889C74.3976 90.0889 72.126 87.8172 72.126 85.0157C72.126 82.2128 74.3976 79.9412 77.2005 79.9412C80.002 79.9412 82.2737 82.2128 82.2737 85.0157Z" fill="#47291D"/>
<path d="M116.146 84.4771C116.146 84.4771 120.298 82.5563 125.34 82.4873C131.111 82.4083 135.808 83.6414 135.808 83.6414C135.808 83.6414 133.18 78.4273 125.725 78.8247C119.729 79.146 116.464 83.1623 116.146 84.4771Z" fill="#47291D"/>
<path d="M120.006 85.0157C120.006 87.8172 122.279 90.0889 125.08 90.0889C127.882 90.0889 130.155 87.8172 130.155 85.0157C130.155 82.2128 127.882 79.9412 125.08 79.9412C122.279 79.9412 120.006 82.2128 120.006 85.0157Z" fill="#47291D"/>
<path d="M116.865 67.2037C116.865 67.2037 114.636 69.9897 114.796 73.9707C114.796 73.9707 119.81 72.9349 123.79 71.5032C127.771 70.07 140.747 70.5872 140.747 70.5872C140.747 70.5872 129.841 63.1452 116.865 67.2037Z" fill="#47291D"/>
<path d="M86.4502 67.2037C86.4502 67.2037 88.6795 69.9897 88.5203 73.9707C88.5203 73.9707 83.5049 72.9349 79.5239 71.5032C75.5429 70.07 62.5684 70.5872 62.5684 70.5872C62.5684 70.5872 73.4742 63.1452 86.4502 67.2037Z" fill="#47291D"/>
<path d="M61.0869 164.869L72.6015 213.911L101.735 199.847L73.5344 150.393L61.0869 164.869Z" fill="#FFF0F0"/>
<path d="M129.886 150.392L101.737 199.848L131.459 213.91L142.493 164.868L129.886 150.392Z" fill="#FFF0F0"/>
<path d="M103.049 213.793C102.637 213.793 102.306 213.461 102.306 213.052C102.306 212.64 102.637 212.308 103.049 212.308C103.46 212.308 103.791 212.64 103.791 213.052C103.791 213.461 103.46 213.793 103.049 213.793ZM100.498 213.793C100.086 213.793 99.7553 213.461 99.7553 213.052C99.7553 212.64 100.086 212.308 100.498 212.308C100.909 212.308 101.242 212.64 101.242 213.052C101.242 213.461 100.909 213.793 100.498 213.793ZM101.773 209.695C99.9188 209.695 98.418 211.197 98.418 213.052C98.418 214.904 99.9188 216.406 101.773 216.406C103.628 216.406 105.129 214.904 105.129 213.052C105.129 211.197 103.628 209.695 101.773 209.695Z" fill="#FFF0F0"/>
<path d="M103.049 234.602C102.637 234.602 102.306 234.27 102.306 233.858C102.306 233.449 102.637 233.115 103.049 233.115C103.46 233.115 103.791 233.449 103.791 233.858C103.791 234.27 103.46 234.602 103.049 234.602ZM100.498 234.602C100.086 234.602 99.7553 234.27 99.7553 233.858C99.7553 233.449 100.086 233.115 100.498 233.115C100.909 233.115 101.242 233.449 101.242 233.858C101.242 234.27 100.909 234.602 100.498 234.602ZM101.773 230.504C99.9188 230.504 98.418 232.005 98.418 233.858C98.418 235.713 99.9188 237.215 101.773 237.215C103.628 237.215 105.129 235.713 105.129 233.858C105.129 232.005 103.628 230.504 101.773 230.504Z" fill="#FFF0F0"/>
<path d="M56.7448 35.4789C56.7448 35.4789 64.4066 59.7609 47.5709 78.5879C47.5709 78.5879 41.3013 73.5176 39.9992 55.9617C38.6999 38.4044 43.4461 31.2513 46.6802 28.9754C46.6802 28.9754 46.5689 17.9216 58.4838 9.95534C70.4 1.99051 109.855 -6.66483 135.807 7.74148C161.76 22.1492 163.423 44.0088 155.846 77.3774C155.846 77.3774 143.305 68.9658 140.748 43.6072C128.759 49.1341 76.9021 55.7982 56.7448 35.4789Z" fill="#787878"/>
</svg>
