<svg width="204" height="244" viewBox="0 0 204 244" fill="none" xmlns="http://www.w3.org/2000/svg">
<path fill-rule="evenodd" clip-rule="evenodd" d="M101.704 242.838C157.721 242.838 203.408 197.15 203.408 141.133C203.408 85.1152 157.721 39.4272 101.704 39.4272C45.6867 39.4272 0 85.1152 0 141.133C0 197.15 45.6867 242.838 101.704 242.838Z" fill="#DC9118"/>
<path fill-rule="evenodd" clip-rule="evenodd" d="M25.1469 103.587C39.8976 62.2919 33.9469 67.1053 37.9469 50.8626C39.1576 45.9479 40.8989 41.2253 43.0736 36.7946C50.7923 15.5039 67.2003 1.33595 100.108 0.519948C133.015 1.33595 149.423 15.5039 157.142 36.7946C159.314 41.2253 161.056 45.9479 162.267 50.8626C166.267 67.1053 160.315 62.2919 175.067 103.587C207.899 195.493 -7.68641 195.493 25.1469 103.587Z" fill="#3F2716"/>
<path fill-rule="evenodd" clip-rule="evenodd" d="M121.604 151.076L120.954 129.752H82.3225L80.9011 151.053C80.2744 160.469 60.0331 163.664 52.1158 168.473C28.6024 182.755 8.15979 207.167 8.96645 242.837H194.44C195.204 209.063 176.916 185.38 155.009 170.833C144.353 163.76 121.833 158.635 121.604 151.076Z" fill="#E4AE7C"/>
<path fill-rule="evenodd" clip-rule="evenodd" d="M81.1494 147.343C93.0654 158.279 109.427 158.586 121.511 148.024L120.955 129.752H82.3227L81.1494 147.343Z" fill="#D67F54"/>
<path fill-rule="evenodd" clip-rule="evenodd" d="M100.727 146.237C44.4447 148.056 16.0314 -0.567984 100.727 3.35735C101.061 3.34135 101.374 3.34935 101.703 3.33868C102.033 3.34935 102.347 3.34135 102.679 3.35735C187.377 -0.567984 158.962 148.056 102.679 146.237C102.351 146.248 102.03 146.228 101.703 146.228C101.377 146.228 101.055 146.248 100.727 146.237Z" fill="#E4AE7C"/>
<path fill-rule="evenodd" clip-rule="evenodd" d="M50.5324 84.0488C50.3084 81.5701 40.1671 78.6394 36.7857 86.7528C33.4044 94.8661 39.4911 106.359 50.9844 107.261C62.4777 108.162 59.0964 106.134 59.0964 106.134L50.5324 84.0488Z" fill="#E4AE7C"/>
<path fill-rule="evenodd" clip-rule="evenodd" d="M152.874 84.0488C153.1 81.5701 163.241 78.6394 166.622 86.7528C170.002 94.8661 163.917 106.359 152.422 107.261C140.93 108.162 144.309 106.134 144.309 106.134L152.874 84.0488Z" fill="#E4AE7C"/>
<path fill-rule="evenodd" clip-rule="evenodd" d="M41.519 92.6581C41.519 93.0221 41.223 93.3194 40.8563 93.3194C40.491 93.3194 40.1963 93.0221 40.1963 92.6581C40.1963 90.3221 40.6576 88.7794 41.4016 87.8648C42.003 87.1261 42.771 86.7861 43.6296 86.7648C44.419 86.7474 45.267 87.0141 46.1083 87.4914C48.0736 88.6034 50.0923 90.9328 51.1936 93.4528C51.8816 95.0248 52.447 96.6901 52.5963 97.6314C52.6456 97.9448 52.655 98.2074 52.6163 98.4034L52.607 98.4381C52.4923 98.9594 52.1843 99.1914 51.6536 99.0768C51.4456 99.0328 51.2203 98.8968 50.9816 98.6554C50.0856 97.7541 49.0096 97.3834 48.159 97.4674C47.8523 97.4994 47.5816 97.5928 47.3763 97.7408C47.1896 97.8728 47.0523 98.0594 46.9816 98.2954C46.8163 98.8514 46.9963 99.6794 47.7243 100.763C47.927 101.067 47.8456 101.477 47.543 101.679C47.2403 101.882 46.831 101.801 46.6296 101.499C45.6536 100.043 45.4456 98.8248 45.7163 97.9168C45.8736 97.3928 46.1856 96.9714 46.6043 96.6714C47.003 96.3848 47.4923 96.2101 48.0296 96.1554C48.9763 96.0608 50.0963 96.3434 51.1136 97.0488C50.8776 96.1994 50.463 95.0741 49.9856 93.9794C48.991 91.7088 47.195 89.6221 45.4576 88.6381C44.8163 88.2741 44.1963 88.0714 43.6563 88.0834C43.1856 88.0941 42.7603 88.2848 42.4243 88.6968C41.867 89.3848 41.519 90.6488 41.519 92.6581Z" fill="#D67F54"/>
<path fill-rule="evenodd" clip-rule="evenodd" d="M85.7309 69.482C85.5509 69.394 85.3723 69.31 85.1883 69.2314C83.0856 68.37 81.3029 68.1367 79.0309 68.3247C76.8069 68.5914 75.1456 69.162 73.2816 70.3674C72.4096 71.0034 69.0123 74.1234 69.9763 75.2754C70.3696 75.3967 73.7549 73.4367 74.7483 73.0687C76.2949 72.5527 77.5483 72.354 79.1869 72.394C80.7136 72.4714 81.8629 72.7234 83.2563 73.3327C83.2936 73.3407 83.5443 73.4687 83.5976 73.4954C86.4363 75.0607 86.1789 76.0647 88.1163 74.5607C91.0949 72.762 88.0283 70.8367 85.7309 69.482Z" fill="#4B2E1B"/>
<path fill-rule="evenodd" clip-rule="evenodd" d="M117.675 69.482C117.854 69.394 118.035 69.31 118.218 69.2314C120.32 68.37 122.103 68.1367 124.375 68.3247C126.6 68.5914 128.26 69.162 130.124 70.3674C130.996 71.0034 134.394 74.1234 133.43 75.2754C133.036 75.3967 129.652 73.4367 128.659 73.0687C127.112 72.5527 125.858 72.354 124.22 72.394C122.692 72.4714 121.543 72.7234 120.151 73.3327C120.114 73.3407 119.862 73.4687 119.808 73.4954C116.97 75.0607 117.227 76.0647 115.291 74.5607C112.31 72.762 115.378 70.8367 117.675 69.482Z" fill="#4B2E1B"/>
<path fill-rule="evenodd" clip-rule="evenodd" d="M100.814 109.075C100.45 109.075 100.152 108.776 100.152 108.412C100.152 108.047 100.45 107.751 100.814 107.751C102.396 107.751 104.287 107.733 105.747 107.448C106.96 107.211 107.855 106.809 107.855 106.103C107.855 103.896 105.924 90.2374 105.92 90.1987C105.87 89.8374 106.122 89.5027 106.483 89.4534C106.844 89.404 107.176 89.656 107.227 90.0174C107.232 90.056 109.179 103.824 109.179 106.103C109.179 107.633 107.831 108.388 106 108.745C104.415 109.055 102.452 109.075 100.814 109.075Z" fill="#D67F54"/>
<path fill-rule="evenodd" clip-rule="evenodd" d="M162.925 92.6581C162.925 93.0221 162.629 93.3194 162.263 93.3194C161.899 93.3194 161.603 93.0221 161.603 92.6581C161.603 90.6488 161.255 89.3848 160.696 88.6968C160.36 88.2848 159.936 88.0941 159.465 88.0834C158.924 88.0714 158.305 88.2741 157.663 88.6381C155.925 89.6221 154.129 91.7088 153.136 93.9794C152.659 95.0741 152.244 96.1994 152.008 97.0488C153.024 96.3434 154.145 96.0608 155.091 96.1554C155.629 96.2101 156.119 96.3848 156.516 96.6714C156.936 96.9714 157.248 97.3928 157.405 97.9168C157.676 98.8248 157.467 100.043 156.492 101.499C156.289 101.801 155.88 101.882 155.577 101.679C155.275 101.477 155.195 101.067 155.397 100.763C156.124 99.6794 156.305 98.8514 156.14 98.2954C156.068 98.0594 155.931 97.8728 155.745 97.7408C155.539 97.5928 155.269 97.4994 154.961 97.4674C154.112 97.3834 153.036 97.7541 152.14 98.6554C151.9 98.8968 151.675 99.0328 151.468 99.0768C150.936 99.1914 150.628 98.9594 150.513 98.4381L150.505 98.4034C150.467 98.2074 150.476 97.9448 150.524 97.6314C150.675 96.6901 151.239 95.0248 151.927 93.4528C153.029 90.9328 155.048 88.6034 157.011 87.4914C157.853 87.0141 158.703 86.7474 159.491 86.7648C160.349 86.7861 161.119 87.1261 161.72 87.8648C162.463 88.7794 162.925 90.3221 162.925 92.6581Z" fill="#D67F54"/>
<path fill-rule="evenodd" clip-rule="evenodd" d="M97.8337 126.732C97.5191 126.548 97.4151 126.144 97.5977 125.83C97.7817 125.516 98.1857 125.411 98.5004 125.594C99.4097 126.128 100.568 126.395 101.728 126.395C102.887 126.395 104.026 126.13 104.898 125.599C105.21 125.412 105.615 125.511 105.803 125.822C105.991 126.134 105.892 126.539 105.58 126.727C104.492 127.387 103.11 127.718 101.728 127.718C100.351 127.718 98.9537 127.388 97.8337 126.732Z" fill="#D67F54"/>
<path fill-rule="evenodd" clip-rule="evenodd" d="M50.3722 108.722C51.6696 108.722 52.7269 107.62 52.7269 106.268C52.7269 104.918 51.6696 103.816 50.3722 103.816C49.0749 103.816 48.0176 104.918 48.0176 106.268C48.0176 107.62 49.0749 108.722 50.3722 108.722Z" fill="#D17B65"/>
<path fill-rule="evenodd" clip-rule="evenodd" d="M153.034 108.722C154.33 108.722 155.388 107.62 155.388 106.268C155.388 104.918 154.33 103.816 153.034 103.816C151.736 103.816 150.678 104.918 150.678 106.268C150.678 107.62 151.736 108.722 153.034 108.722Z" fill="#D17B65"/>
<path fill-rule="evenodd" clip-rule="evenodd" d="M83.9381 82.5659C86.2208 84.2125 86.7328 87.3939 85.0835 89.6712C83.4328 91.9485 80.2448 92.4605 77.9635 90.8152C75.6808 89.1672 75.1688 85.9859 76.8195 83.7085C78.4675 81.4312 81.6568 80.9205 83.9381 82.5659Z" fill="#3F2716"/>
<path fill-rule="evenodd" clip-rule="evenodd" d="M120.169 82.5659C117.888 84.2125 117.374 87.3939 119.025 89.6712C120.674 91.9485 123.864 92.4605 126.144 90.8152C128.426 89.1672 128.94 85.9859 127.289 83.7085C125.64 81.4312 122.452 80.9205 120.169 82.5659Z" fill="#3F2716"/>
<path fill-rule="evenodd" clip-rule="evenodd" d="M100.728 2.69478C101.045 2.68145 101.364 2.68811 101.681 2.67744L101.704 2.67611L101.725 2.67744C102.042 2.68811 102.36 2.68145 102.678 2.69478C110.205 2.34945 117.853 3.16678 124.944 5.80944C131.069 8.09078 136.469 11.6121 140.993 16.3321C148.737 24.4094 153.09 35.0841 155.162 45.9508C157.437 57.8774 157.113 70.5681 155.072 82.5054L155.017 82.8294L154.729 82.9814C154.39 83.1588 153.572 83.6708 153.533 84.1094L153.524 84.2014L151.753 88.7681L151.245 86.7548C149.486 79.7921 148.372 72.9068 148.372 65.7041C148.372 57.0201 147.109 47.4481 142.686 39.8134C139.636 34.5454 135.246 30.5348 129.505 28.4121C124.669 26.6254 119.324 26.3654 114.285 27.3668C110.233 28.1734 105.733 29.9681 102.676 32.8228L102.225 33.2441L101.773 32.8228C98.7155 29.9681 94.2169 28.1734 90.1649 27.3668C85.1262 26.3654 79.7822 26.6254 74.9449 28.4121C69.2035 30.5348 64.8142 34.5454 61.7635 39.8134C57.3409 47.4481 56.0782 57.0201 56.0782 65.7041C56.0782 73.5001 54.7715 80.8668 52.7835 88.3761L52.2649 90.3428L49.8822 84.2014L49.8729 84.1094C49.8342 83.6694 49.0155 83.1588 48.6769 82.9814L48.3889 82.8294L48.3329 82.5054C46.2915 70.5681 45.9689 57.8774 48.2435 45.9508C50.3169 35.0841 54.6675 24.4094 62.4129 16.3321C66.9369 11.6121 72.3369 8.09078 78.4609 5.80944C85.5529 3.16678 93.2009 2.34945 100.728 2.69478Z" fill="#3F2716"/>
<path fill-rule="evenodd" clip-rule="evenodd" d="M102.226 32.339C113.17 22.123 149.035 19.3097 149.035 65.703C149.035 73.343 150.266 80.1684 151.888 86.591L152.875 84.0484C152.926 83.4737 153.512 82.8737 154.422 82.395C161.095 43.355 148.282 1.24436 102.679 3.35769C102.348 3.34169 102.032 3.34969 101.704 3.33903C101.375 3.34969 101.06 3.34169 100.727 3.35769C55.1242 1.24436 42.3122 43.3537 48.9856 82.395C49.8962 82.8737 50.4816 83.4737 50.5322 84.0484L52.1456 88.207C53.9709 81.311 55.4162 73.9857 55.4162 65.703C55.4162 19.3097 91.2802 22.123 102.226 32.339Z" fill="#3F2716"/>
<path fill-rule="evenodd" clip-rule="evenodd" d="M101.941 45.8896C83.4494 34.0643 68.968 36.7616 69.0587 62.8203C69.1734 96.0389 49.5254 103.003 59.272 139.058C61.2547 146.394 66.2054 158.611 76.464 160.243C79.76 160.767 43.508 160.354 44.856 120.614C45.468 102.564 55.416 87.4216 55.416 65.7029C55.416 19.3083 91.28 22.1229 102.225 32.3389V45.9909C102.133 45.9643 102.028 45.9443 101.941 45.8896Z" fill="#F1D3A4"/>
<path fill-rule="evenodd" clip-rule="evenodd" d="M102.51 45.8896C121 34.0643 135.483 36.7616 135.392 62.8203C135.276 96.0389 154.924 103.003 145.179 139.058C143.196 146.394 138.246 158.611 127.987 160.243C124.69 160.767 160.942 160.354 159.595 120.614C158.983 102.564 149.035 87.4216 149.035 65.7029C149.035 19.3083 113.17 22.1229 102.226 32.3389V45.9909C102.318 45.9643 102.422 45.9443 102.51 45.8896Z" fill="#F1D3A4"/>
<path fill-rule="evenodd" clip-rule="evenodd" d="M135.573 167.588C126.326 173.794 114.541 177.514 101.705 177.514C89.9288 177.514 79.0381 174.386 70.1821 169.076C67.6008 167.529 65.1914 165.796 62.9848 163.904C61.4568 164.462 59.9528 165.006 58.5301 165.55C56.0408 166.502 53.7994 167.45 52.1168 168.473C28.6021 182.754 8.16076 207.168 8.96743 242.838H194.439C195.205 209.062 176.917 185.38 155.009 170.834C151.849 168.736 147.643 166.809 143.287 164.94C142.383 164.552 141.473 164.166 140.565 163.782C138.999 165.134 137.331 166.405 135.573 167.588Z" fill="#EBEBEB"/>
<path fill-rule="evenodd" clip-rule="evenodd" d="M144.038 169.961C144.279 169.691 144.696 169.664 144.968 169.905C145.242 170.147 145.267 170.564 145.026 170.835C144.327 171.623 143.582 172.372 142.792 173.083C133.611 181.361 117.704 185.507 101.792 185.527C85.8856 185.545 69.9349 181.441 60.6629 173.219C59.8429 172.492 59.0829 171.743 58.3843 170.967C58.1389 170.696 58.1616 170.277 58.4323 170.035C58.7043 169.791 59.1216 169.812 59.3656 170.083C60.0443 170.835 60.7683 171.552 61.5363 172.232C70.5589 180.235 86.1776 184.228 101.792 184.208C117.404 184.189 132.975 180.156 141.91 172.1C142.675 171.409 143.387 170.697 144.038 169.961Z" fill="#999A9A"/>
<path fill-rule="evenodd" clip-rule="evenodd" d="M38.1641 242.838C38.5627 221.787 39.8894 194.649 42.1041 175.357C45.3401 172.846 48.6947 170.551 52.1161 168.474C53.8001 167.451 56.0401 166.502 58.5307 165.55C58.9107 165.406 59.2961 165.261 59.6854 165.115L59.9587 165.031L59.9934 165.107C70.1721 188.311 77.6561 208.489 101.163 220.442L101.501 220.615L101.841 220.442C125.312 208.523 133.275 188.101 143.123 164.869L143.287 164.939C147.644 166.81 151.849 168.737 155.009 170.834C157.143 172.251 159.241 173.754 161.292 175.346C163.513 195.041 164.844 221.805 165.245 242.838H38.1641Z" fill="#C46A6A"/>
<path fill-rule="evenodd" clip-rule="evenodd" d="M38.0609 215.444C38.0649 214.898 38.5116 214.46 39.0583 214.464C39.6036 214.468 40.0423 214.915 40.0383 215.46L39.8143 242.846C39.8103 243.391 39.3636 243.83 38.8169 243.827C38.2729 243.82 37.8329 243.376 37.8369 242.828L38.0609 215.444Z" fill="#999A9A"/>
<path fill-rule="evenodd" clip-rule="evenodd" d="M163.594 215.444C163.598 214.898 164.043 214.46 164.59 214.464C165.135 214.468 165.575 214.915 165.571 215.46L165.347 242.846C165.343 243.391 164.897 243.83 164.35 243.827C163.805 243.82 163.365 243.376 163.37 242.828L163.594 215.444Z" fill="#999A9A"/>
<path fill-rule="evenodd" clip-rule="evenodd" d="M111.609 118.831C111.923 118.646 112.329 118.75 112.513 119.064C112.698 119.378 112.594 119.783 112.281 119.968C109.121 121.839 105.411 122.772 101.705 122.772C97.9966 122.772 94.2873 121.836 91.1259 119.968C90.8113 119.783 90.7073 119.378 90.8926 119.063C91.0793 118.748 91.4833 118.644 91.7979 118.83C94.7553 120.58 98.2299 121.455 101.705 121.455C105.178 121.455 108.651 120.58 111.609 118.831Z" fill="#52311D"/>
<path fill-rule="evenodd" clip-rule="evenodd" d="M68.8519 157.929C69.1946 158.049 69.3773 158.425 69.2573 158.769C69.1373 159.113 68.7613 159.294 68.4173 159.176C64.0999 157.664 56.8066 152.793 52.7706 143.65C50.0946 137.586 48.8399 129.645 50.8293 119.561C52.7773 109.678 54.8319 102.896 56.6266 96.9716C59.3453 87.9969 61.4626 81.0076 61.6719 68.2062C61.8493 57.4382 62.9159 49.1262 65.6719 43.1249C68.4786 37.0142 73.0026 33.3022 80.0559 31.8556C94.1026 28.9742 102.032 38.7049 102.055 38.7329C102.287 39.0129 102.248 39.4289 101.969 39.6609C101.688 39.8942 101.273 39.8556 101.041 39.5742C101.019 39.5502 93.5866 30.4262 80.3213 33.1489C73.7213 34.5022 69.4906 37.9676 66.8706 43.6742C64.1999 49.4902 63.1639 57.6356 62.9906 68.2262C62.7773 81.2289 60.6399 88.2902 57.8946 97.3529C56.1053 103.254 54.0586 110.01 52.1266 119.813C50.1973 129.597 51.3999 137.276 53.9799 143.118C57.8386 151.86 64.7599 156.498 68.8519 157.929Z" fill="#E0BC91"/>
<path fill-rule="evenodd" clip-rule="evenodd" d="M136.079 159.175C135.734 159.295 135.358 159.112 135.238 158.768C135.118 158.426 135.301 158.048 135.645 157.928C139.735 156.498 146.658 151.86 150.517 143.118C153.095 137.275 154.299 129.596 152.37 119.814C150.437 110.01 148.39 103.255 146.603 97.3537C143.857 88.2897 141.718 81.2284 141.505 68.2257C141.331 57.6364 140.298 49.4897 137.626 43.6737C135.005 37.9684 130.775 34.5017 124.175 33.1484C110.91 30.4257 103.475 39.5497 103.455 39.575C103.222 39.8564 102.806 39.8937 102.527 39.6604C102.246 39.4284 102.209 39.0137 102.442 38.7324C102.465 38.7044 110.394 28.975 124.439 31.8564C131.494 33.303 136.018 37.015 138.825 43.1257C141.581 49.127 142.646 57.4377 142.823 68.2057C143.033 81.007 145.15 87.9964 147.869 96.9724C149.663 102.895 151.718 109.679 153.667 119.56C155.657 129.646 154.402 137.587 151.726 143.65C147.689 152.794 140.395 157.663 136.079 159.175Z" fill="#E0BC91"/>
</svg>
