<svg width="205" height="252" viewBox="0 0 205 252" fill="none" xmlns="http://www.w3.org/2000/svg">
<path fill-rule="evenodd" clip-rule="evenodd" d="M102.336 251.826C158.354 251.826 204.042 206.138 204.042 150.121C204.042 94.1035 158.354 48.4155 102.336 48.4155C46.3175 48.4155 0.630859 94.1035 0.630859 150.121C0.630859 206.138 46.3175 251.826 102.336 251.826Z" fill="#536B8F"/>
<path fill-rule="evenodd" clip-rule="evenodd" d="M101.837 195.283C101.837 195.283 77.5171 184.687 69.7531 178.729C61.9891 172.771 61.7544 152.013 63.3291 146.411C64.9051 140.807 66.8304 132.755 78.3851 131.703C89.9397 130.653 101.837 134.467 101.837 134.467C101.837 134.467 113.736 130.653 125.29 131.703C136.845 132.755 138.77 140.807 140.346 146.411C141.921 152.013 141.688 172.771 133.922 178.729C126.157 184.687 101.837 195.283 101.837 195.283Z" fill="#472C53"/>
<path fill-rule="evenodd" clip-rule="evenodd" d="M70.1533 178.205C77.3973 183.762 99.2026 193.406 101.837 194.563C104.472 193.406 126.279 183.762 133.521 178.205C136.527 175.898 138.367 171.181 139.392 166.025C140.911 158.378 140.627 149.847 139.711 146.587L139.576 146.109C138.071 140.722 136.008 133.341 125.232 132.361C113.977 131.338 102.405 134.979 102.043 135.095L102.035 135.097C101.909 135.135 101.775 135.138 101.641 135.097C101.608 135.087 89.8613 131.322 78.444 132.361C67.6853 133.339 65.6106 140.697 64.1053 146.081L63.964 146.587C63.048 149.847 62.764 158.378 64.284 166.025C65.3093 171.181 67.148 175.898 70.1533 178.205ZM101.573 195.889C101.504 195.857 77.1786 185.258 69.352 179.253C66.052 176.721 64.0666 171.714 62.9866 166.279C61.428 158.439 61.7386 149.625 62.6933 146.231L62.8346 145.726C64.444 139.971 66.6626 132.109 78.3253 131.047C89.1613 130.062 100.245 133.289 101.837 133.775C103.429 133.289 114.513 130.062 125.349 131.047C137.032 132.11 139.237 139.998 140.848 145.754L140.981 146.231C141.937 149.625 142.247 158.439 140.688 166.279C139.609 171.714 137.623 176.721 134.323 179.253C126.497 185.258 102.171 195.857 102.101 195.889C101.927 195.965 101.736 195.958 101.573 195.889Z" fill="#20201E"/>
<path fill-rule="evenodd" clip-rule="evenodd" d="M102.335 251.827H7.68959C6.59492 203.428 43.8323 175.334 75.8056 164.85C78.3989 151.347 77.7363 133.834 77.7363 133.834H102.335H126.935C126.935 133.834 126.272 151.347 128.867 164.85C160.839 175.334 198.076 203.428 196.98 251.827H102.335Z" fill="#E4AE7C"/>
<path fill-rule="evenodd" clip-rule="evenodd" d="M126.934 133.834C126.934 133.834 126.803 137.306 126.886 142.347C117.542 165.823 88.5313 168.464 77.7673 143.323C77.8833 137.758 77.7354 133.834 77.7354 133.834H126.934Z" fill="#D67F54"/>
<path fill-rule="evenodd" clip-rule="evenodd" d="M200.208 251.827C201.22 208.624 170.645 181.603 140.552 168.842C137.352 167.484 131.707 185.196 128.557 184.16C121.995 198.72 77.9665 198.654 71.4759 184.075C67.2785 185.444 65.4532 168.188 61.1879 170.131C32.0732 183.374 3.48522 210.026 4.46388 251.827H200.208Z" fill="#593B73"/>
<path fill-rule="evenodd" clip-rule="evenodd" d="M32.8453 223.415C32.8506 222.868 33.2959 222.429 33.8426 222.433C34.3879 222.437 34.8279 222.884 34.8226 223.429L34.5799 250.815C34.5759 251.361 34.1293 251.8 33.5839 251.796C33.0373 251.791 32.5973 251.345 32.6026 250.799L32.8453 223.415Z" fill="#472C53"/>
<path fill-rule="evenodd" clip-rule="evenodd" d="M169.146 223.415C169.152 222.868 169.597 222.429 170.144 222.433C170.688 222.437 171.128 222.884 171.124 223.429L170.88 250.815C170.877 251.361 170.429 251.8 169.885 251.796C169.338 251.791 168.898 251.345 168.902 250.799L169.146 223.415Z" fill="#472C53"/>
<path fill-rule="evenodd" clip-rule="evenodd" d="M102.335 188.281C76.8191 187.849 52.5045 140.158 75.7311 133.834C77.7658 133.281 78.4165 132.297 78.0245 131.103C68.9858 132.495 60.6991 135.787 59.8751 143.142C58.2418 157.746 17.8951 165.973 54.1018 190.013C68.0578 199.279 88.2591 204.733 102.335 204.225C116.758 204.753 137.756 198.839 151.856 188.897C185.694 165.034 146.451 157.942 144.796 143.142C143.972 135.787 135.686 132.495 126.647 131.103C126.256 132.297 126.907 133.281 128.94 133.834C152.167 140.158 127.854 187.849 102.335 188.281Z" fill="#624280"/>
<path fill-rule="evenodd" clip-rule="evenodd" d="M92.8014 200.569C95.2027 200.569 97.1601 198.611 97.1601 196.211C97.1601 193.809 95.2027 191.852 92.8014 191.852C90.4014 191.852 88.4414 193.809 88.4414 196.211C88.4414 198.611 90.4014 200.569 92.8014 200.569Z" fill="#472C53"/>
<path fill-rule="evenodd" clip-rule="evenodd" d="M110.745 200.569C113.145 200.569 115.103 198.611 115.103 196.211C115.103 193.809 113.145 191.852 110.745 191.852C108.343 191.852 106.385 193.809 106.385 196.211C106.385 198.611 108.343 200.569 110.745 200.569Z" fill="#472C53"/>
<path fill-rule="evenodd" clip-rule="evenodd" d="M90.8969 195.637C91.2129 194.592 92.3169 194.001 93.3623 194.319C94.4076 194.636 94.9969 195.74 94.6809 196.784C92.5703 203.68 91.5143 210.335 91.5143 216.644C91.5143 222.892 92.5569 228.788 94.6423 234.231C95.0316 235.256 94.5169 236.4 93.4929 236.789C92.4703 237.179 91.3249 236.665 90.9343 235.643C88.6743 229.74 87.5449 223.373 87.5449 216.644C87.5449 209.976 88.6623 202.939 90.8969 195.637Z" fill="#F0CA0C"/>
<path fill-rule="evenodd" clip-rule="evenodd" d="M108.897 197.432C108.579 196.386 109.17 195.282 110.214 194.965C111.259 194.648 112.363 195.238 112.681 196.284C114.915 203.586 116.033 210.624 116.033 217.292C116.033 224.017 114.902 230.386 112.642 236.29C112.253 237.312 111.106 237.826 110.083 237.437C109.058 237.046 108.545 235.901 108.934 234.878C111.021 229.434 112.062 223.538 112.062 217.292C112.062 210.981 111.007 204.329 108.897 197.432Z" fill="#F0CA0C"/>
<path fill-rule="evenodd" clip-rule="evenodd" d="M50.2369 90.5372C50.0076 88.0065 39.6569 85.0159 36.2062 93.2959C32.7556 101.577 38.9662 113.307 50.6969 114.228C62.4276 115.147 58.9769 113.076 58.9769 113.076L50.2369 90.5372Z" fill="#E4AE7C"/>
<path fill-rule="evenodd" clip-rule="evenodd" d="M154.684 90.5372C154.914 88.0065 165.264 85.0159 168.712 93.2959C172.163 101.577 165.954 113.307 154.223 114.228C142.492 115.147 145.943 113.076 145.943 113.076L154.684 90.5372Z" fill="#E4AE7C"/>
<path fill-rule="evenodd" clip-rule="evenodd" d="M102.334 146.305C41.3038 147.772 10.4905 -2.72941 102.334 1.12526C194.18 -2.72941 163.366 147.772 102.334 146.305Z" fill="#E4AE7C"/>
<path fill-rule="evenodd" clip-rule="evenodd" d="M47.2154 87.7559C42.922 69.6559 40.8487 47.8932 46.1154 32.1545C52.5914 12.8039 77.4514 0.202528 102.283 0.00252802C126.134 -0.192139 149.962 11.2652 157.449 29.1999C164.078 45.0825 162.023 68.4945 157.457 87.7559C150.754 77.5905 147.914 59.4719 148.503 48.5199C149.398 31.8545 126.257 23.1172 102.334 22.3759C78.4114 23.1172 55.2727 31.8545 56.1674 48.5199C56.7567 59.4719 53.9167 77.5905 47.2154 87.7559Z" fill="#52311D"/>
<path fill-rule="evenodd" clip-rule="evenodd" d="M129.527 18.9955C141.267 31.2955 143.975 37.2048 150.401 42.1621C153.405 44.4808 138.841 50.9581 130.373 48.2221C131.322 50.5608 136.573 56.0248 136.373 56.1235C130.535 58.9408 111.055 57.8181 98.394 50.5195C98.5407 52.7555 99.1554 56.6528 101.158 58.0821C101.738 58.4968 94.7407 57.9355 92.6487 57.5421C81.0207 55.3568 58.714 44.1195 56.8594 26.0395C62.758 0.79548 105.222 -6.47385 129.527 18.9955Z" fill="#52311D"/>
<path fill-rule="evenodd" clip-rule="evenodd" d="M66.4971 37.1842C67.2104 39.2229 67.9811 41.0282 68.9518 42.9602C71.1851 47.2202 73.4744 50.5455 76.8958 53.9322C77.2198 54.2202 81.2211 58.4175 81.2651 58.8215C80.3678 60.3935 75.7251 57.7215 74.7678 57.2495C69.7278 54.7682 66.2678 50.9309 63.2238 46.2949C61.8144 44.0229 60.7931 41.9869 59.8971 39.4669C58.6985 35.4362 56.8251 30.6562 61.5611 30.9042C65.6584 30.6415 64.8744 32.2095 66.4971 37.1842Z" fill="#52311D"/>
<path fill-rule="evenodd" clip-rule="evenodd" d="M84.2206 61.4678C84.0166 61.3798 83.814 61.2958 83.606 61.2185C81.2206 60.3571 79.198 60.1225 76.622 60.3105C74.0993 60.5771 72.2153 61.1478 70.1006 62.3531C69.1126 62.9905 65.2593 66.1104 66.3526 67.2611C66.798 67.3838 70.6366 65.4238 71.7633 65.0558C73.518 64.5385 74.9406 64.3398 76.798 64.3798C78.53 64.4571 79.834 64.7105 81.4126 65.3198C81.4553 65.3264 81.7406 65.4545 81.802 65.4811C85.0206 67.0464 84.7286 68.0518 86.9246 66.5465C90.3046 64.7478 86.826 62.8225 84.2206 61.4678Z" fill="#3F2716"/>
<path fill-rule="evenodd" clip-rule="evenodd" d="M120.452 61.4678C120.653 61.3798 120.858 61.2958 121.066 61.2185C123.452 60.3571 125.474 60.1225 128.05 60.3105C130.573 60.5771 132.457 61.1478 134.572 62.3531C135.558 62.9905 139.412 66.1104 138.318 67.2611C137.874 67.3838 134.036 65.4238 132.908 65.0558C131.154 64.5385 129.732 64.3398 127.873 64.3798C126.141 64.4571 124.837 64.7105 123.258 65.3198C123.216 65.3264 122.93 65.4545 122.869 65.4811C119.65 67.0464 119.942 68.0518 117.748 66.5465C114.366 64.7478 117.845 62.8225 120.452 61.4678Z" fill="#3F2716"/>
<path fill-rule="evenodd" clip-rule="evenodd" d="M99.4671 123.514C99.1525 123.328 99.0485 122.924 99.2325 122.611C99.4165 122.298 99.8205 122.191 100.134 122.375C101.044 122.91 102.203 123.176 103.363 123.176C104.52 123.176 105.66 122.911 106.532 122.38C106.843 122.194 107.248 122.291 107.438 122.603C107.626 122.915 107.526 123.319 107.216 123.508C106.126 124.168 104.744 124.499 103.363 124.499C101.984 124.499 100.588 124.17 99.4671 123.514Z" fill="#906949"/>
<path fill-rule="evenodd" clip-rule="evenodd" d="M101.837 94.167C101.473 94.167 101.176 93.8697 101.176 93.5057C101.176 93.139 101.473 92.843 101.837 92.843C103.425 92.843 105.322 92.8283 106.789 92.5817C107.993 92.3763 108.878 92.0497 108.878 91.5003C108.878 89.5963 106.95 77.763 106.945 77.7297C106.889 77.3697 107.133 77.031 107.493 76.9737C107.854 76.9163 108.192 77.163 108.248 77.523C108.253 77.5577 110.202 89.515 110.202 91.5003C110.202 92.895 108.848 93.571 107.005 93.883C105.425 94.1497 103.47 94.167 101.837 94.167Z" fill="#D67F54"/>
<path fill-rule="evenodd" clip-rule="evenodd" d="M164.96 99.8313C164.96 100.197 164.664 100.494 164.299 100.494C163.934 100.494 163.638 100.197 163.638 99.8313C163.638 97.8233 163.29 96.5579 162.732 95.8713C162.395 95.4593 161.972 95.2686 161.5 95.2579C160.959 95.2459 160.34 95.4486 159.699 95.8113C157.962 96.7966 156.164 98.8819 155.171 101.154C154.694 102.247 154.28 103.373 154.043 104.223C155.059 103.517 156.18 103.235 157.126 103.329C157.663 103.385 158.155 103.558 158.552 103.845C158.972 104.146 159.283 104.566 159.44 105.09C159.711 105.998 159.502 107.217 158.528 108.673C158.324 108.975 157.916 109.055 157.612 108.854C157.311 108.65 157.228 108.241 157.432 107.938C158.159 106.853 158.34 106.026 158.175 105.469C158.103 105.234 157.966 105.047 157.782 104.915C157.575 104.766 157.306 104.674 156.996 104.642C156.147 104.557 155.071 104.929 154.175 105.83C153.935 106.071 153.71 106.207 153.502 106.251C152.972 106.365 152.663 106.133 152.548 105.613L152.542 105.578C152.502 105.381 152.511 105.118 152.559 104.805C152.71 103.865 153.274 102.199 153.962 100.627C155.064 98.1059 157.083 95.7779 159.047 94.6646C159.89 94.1886 160.738 93.9219 161.527 93.9393C162.384 93.9593 163.154 94.3006 163.755 95.0393C164.499 95.9539 164.96 97.4953 164.96 99.8313Z" fill="#D67F54"/>
<path fill-rule="evenodd" clip-rule="evenodd" d="M41.0336 99.8313C41.0336 100.197 40.7376 100.494 40.3709 100.494C40.0069 100.494 39.7109 100.197 39.7109 99.8313C39.7109 97.4953 40.1723 95.9539 40.9163 95.0393C41.5176 94.3006 42.2856 93.9593 43.1443 93.9393C43.9336 93.9219 44.7816 94.1886 45.6229 94.6646C47.5883 95.7779 49.6069 98.1059 50.7083 100.627C51.3963 102.199 51.9629 103.865 52.1123 104.805C52.1616 105.118 52.1709 105.381 52.1296 105.578L52.1229 105.613C52.0083 106.133 51.7003 106.365 51.1683 106.251C50.9616 106.207 50.7349 106.071 50.4949 105.83C49.5989 104.929 48.5243 104.557 47.6736 104.642C47.3669 104.674 47.0963 104.766 46.8896 104.915C46.7043 105.047 46.5656 105.234 46.4976 105.469C46.3309 106.026 46.5109 106.853 47.2389 107.938C47.4416 108.241 47.3616 108.65 47.0589 108.854C46.7563 109.055 46.3456 108.975 46.1429 108.673C45.1683 107.217 44.9589 105.998 45.2296 105.09C45.3869 104.566 45.7003 104.146 46.1189 103.845C46.5176 103.558 47.0069 103.385 47.5443 103.329C48.4909 103.235 49.6123 103.517 50.6269 104.223C50.3909 103.373 49.9776 102.247 49.4989 101.154C48.5056 98.8819 46.7083 96.7966 44.9723 95.8113C44.3309 95.4486 43.7123 95.2459 43.1709 95.2579C42.7003 95.2686 42.2749 95.4593 41.9403 95.8713C41.3816 96.5579 41.0336 97.8233 41.0336 99.8313Z" fill="#D67F54"/>
<path fill-rule="evenodd" clip-rule="evenodd" d="M84.2206 74.3337C86.502 75.9804 87.014 79.1617 85.3633 81.4391C83.714 83.7164 80.526 84.2284 78.2446 82.5817C75.9633 80.9351 75.45 77.7537 77.0993 75.4764C78.7486 73.1977 81.938 72.6884 84.2206 74.3337Z" fill="#3F2716"/>
<path fill-rule="evenodd" clip-rule="evenodd" d="M120.451 74.3337C118.17 75.9804 117.657 79.1617 119.307 81.4391C120.957 83.7164 124.145 84.2284 126.426 82.5817C128.707 80.9351 129.221 77.7537 127.571 75.4764C125.922 73.1977 122.734 72.6884 120.451 74.3337Z" fill="#3F2716"/>
<path fill-rule="evenodd" clip-rule="evenodd" d="M70.8583 17.4747C70.9316 17.1161 71.2823 16.8881 71.6383 16.9614C71.9956 17.0374 72.2249 17.3867 72.1503 17.7427C70.6423 24.9094 72.5703 31.3507 76.3116 36.8761C81.1409 44.0054 88.9823 49.6267 96.3903 53.3307C96.7169 53.4934 96.8476 53.8894 96.6849 54.2161C96.5236 54.5401 96.1276 54.6721 95.8009 54.5081C88.2236 50.7214 80.1929 44.9561 75.2209 37.6134C71.2916 31.8121 69.2676 25.0321 70.8583 17.4747Z" fill="#6C452C"/>
<path fill-rule="evenodd" clip-rule="evenodd" d="M76.9984 12.1205C76.953 11.7592 77.209 11.4285 77.5704 11.3832C77.9317 11.3378 78.2597 11.5925 78.305 11.9538C79.033 17.6765 83.6477 24.5085 90.0264 30.7511C96.8237 37.4018 105.601 43.3525 113.82 46.5805C129.856 52.8791 131.078 52.8765 131.082 52.8765C131.445 52.8858 131.733 53.1911 131.721 53.5525C131.712 53.9178 131.409 54.2031 131.045 54.1951C131.04 54.1951 129.581 54.1911 113.34 47.8111C104.96 44.5191 96.0197 38.4605 89.1024 31.6912C82.529 25.2592 77.765 18.1551 76.9984 12.1205Z" fill="#6C452C"/>
<path fill-rule="evenodd" clip-rule="evenodd" d="M91.6123 8.92654C91.527 8.57054 91.7443 8.21587 92.099 8.12921C92.4523 8.04387 92.8083 8.26121 92.8936 8.61587C94.0963 13.5159 98.1763 18.7679 103.664 23.2679C109.287 27.8772 116.368 31.6759 123.351 33.4932C137.348 37.1359 138.654 37.3225 138.656 37.3225C139.015 37.3772 139.263 37.7145 139.207 38.0732C139.151 38.4345 138.815 38.6799 138.454 38.6239C138.45 38.6239 137.074 38.4265 123.02 34.7705C115.852 32.9039 108.588 29.0105 102.826 24.2865C97.131 19.6172 92.8856 14.1172 91.6123 8.92654Z" fill="#6C452C"/>
<path fill-rule="evenodd" clip-rule="evenodd" d="M115.865 108.706C116.178 108.521 116.583 108.625 116.77 108.939C116.955 109.253 116.85 109.658 116.537 109.843C112.293 112.354 107.314 113.609 102.337 113.607C97.3593 113.607 92.378 112.351 88.1353 109.842C87.8206 109.657 87.7166 109.251 87.9033 108.937C88.0886 108.623 88.494 108.518 88.8073 108.705C92.8473 111.094 97.5926 112.29 102.337 112.29C107.082 112.29 111.826 111.095 115.865 108.706Z" fill="#52311D"/>
</svg>
